<svg xmlns="http://www.w3.org/2000/svg" id="Capa_1" data-name="Capa 1" width="418.78" height="90" viewBox="0 0 418.78 90"><defs><style> .cls-1 { fill: #3481f8; } </style></defs><g><g><path d="M144.91,29.87h3.17l3.55,10.06h0l3.46-10.06h3.13V42.72h-2.14V32.8h0l-3.56,9.92h-1.85l-3.57-9.92h0v9.92h-2.15Z"></path><path d="M162.27,38.6a3.58,3.58,0,0,0,.15,1,2.39,2.39,0,0,0,.46.88,2.11,2.11,0,0,0,.77.61,2.57,2.57,0,0,0,1.12.22,2.54,2.54,0,0,0,1.45-.38A2.34,2.34,0,0,0,167,39.8H169a3.71,3.71,0,0,1-.56,1.35,3.78,3.78,0,0,1-.95,1,4.18,4.18,0,0,1-1.25.62,5.4,5.4,0,0,1-1.45.2,5,5,0,0,1-2-.36,4,4,0,0,1-1.43-1,4.25,4.25,0,0,1-.88-1.54,6.23,6.23,0,0,1-.3-2,5.58,5.58,0,0,1,.32-1.88,4.77,4.77,0,0,1,.9-1.57,4.26,4.26,0,0,1,1.41-1.07,4.35,4.35,0,0,1,1.87-.4,4.21,4.21,0,0,1,3.42,1.68,4.73,4.73,0,0,1,.84,1.73,5.52,5.52,0,0,1,.14,2Zm4.78-1.35a3.36,3.36,0,0,0-.2-.94,2.54,2.54,0,0,0-.47-.78,2.43,2.43,0,0,0-.72-.54,2.11,2.11,0,0,0-.95-.21,2.59,2.59,0,0,0-1,.19,2.34,2.34,0,0,0-.75.52,2.62,2.62,0,0,0-.71,1.76Z"></path><path d="M170.67,33.42h1.93v1.8h0a2.09,2.09,0,0,1,.35-.74,3.92,3.92,0,0,1,.63-.66,3.21,3.21,0,0,1,.82-.48,2.47,2.47,0,0,1,.92-.18l.5,0,.28,0v2l-.45-.07-.44,0a2.53,2.53,0,0,0-1,.2,2.37,2.37,0,0,0-.8.62,2.9,2.9,0,0,0-.54,1,4.33,4.33,0,0,0-.2,1.36v4.43h-2.05Z"></path><path d="M183,36.53a1.91,1.91,0,0,0-.69-1.31,2.28,2.28,0,0,0-1.43-.44,3,3,0,0,0-.85.14,2,2,0,0,0-.82.5,2.66,2.66,0,0,0-.63,1,4.83,4.83,0,0,0-.26,1.72,5.09,5.09,0,0,0,.14,1.15,3,3,0,0,0,.43,1,2.34,2.34,0,0,0,.77.73,2.13,2.13,0,0,0,1.13.28,2.08,2.08,0,0,0,1.49-.55,2.59,2.59,0,0,0,.72-1.57H185A4.53,4.53,0,0,1,183.64,42a4.22,4.22,0,0,1-2.89,1,4.65,4.65,0,0,1-1.93-.37,4.15,4.15,0,0,1-1.42-1,4.43,4.43,0,0,1-.87-1.53,5.82,5.82,0,0,1-.3-1.9,6.54,6.54,0,0,1,.29-2,4.35,4.35,0,0,1,.87-1.6,4,4,0,0,1,1.43-1.06,4.79,4.79,0,0,1,2-.39,5.51,5.51,0,0,1,1.54.21,4.23,4.23,0,0,1,1.3.62,3.36,3.36,0,0,1,.93,1,3.72,3.72,0,0,1,.43,1.49Z"></path><path d="M194.49,40.65a1.19,1.19,0,0,0,.09.54.42.42,0,0,0,.39.16h.22l.29,0v1.42l-.28.08-.35.08-.36.06h-.31a1.93,1.93,0,0,1-1-.25,1.23,1.23,0,0,1-.54-.88,3.69,3.69,0,0,1-1.51.86,5.86,5.86,0,0,1-1.72.27,4,4,0,0,1-1.2-.17,3.13,3.13,0,0,1-1-.5,2.42,2.42,0,0,1-.7-.85,2.64,2.64,0,0,1-.26-1.19,2.78,2.78,0,0,1,.31-1.41,2.31,2.31,0,0,1,.83-.84,3.63,3.63,0,0,1,1.15-.45c.43-.09.86-.15,1.29-.2s.73-.13,1.06-.16a5.14,5.14,0,0,0,.89-.15,1.28,1.28,0,0,0,.61-.33.93.93,0,0,0,.23-.68,1,1,0,0,0-.19-.65,1.34,1.34,0,0,0-.47-.38,2,2,0,0,0-.62-.18,5,5,0,0,0-.65,0,2.58,2.58,0,0,0-1.42.36,1.43,1.43,0,0,0-.63,1.12h-2.05a3.19,3.19,0,0,1,.43-1.5,3,3,0,0,1,1-.95,3.74,3.74,0,0,1,1.32-.5,7.51,7.51,0,0,1,1.51-.15,6.14,6.14,0,0,1,1.35.15,3.94,3.94,0,0,1,1.2.46,2.62,2.62,0,0,1,.85.84,2.26,2.26,0,0,1,.33,1.25Zm-2.06-2.59a2.48,2.48,0,0,1-1.15.37,13.25,13.25,0,0,0-1.37.19,3.6,3.6,0,0,0-.63.15,2.27,2.27,0,0,0-.54.27,1.08,1.08,0,0,0-.36.45,1.55,1.55,0,0,0-.14.68.81.81,0,0,0,.2.57,1.4,1.4,0,0,0,.47.37,2.36,2.36,0,0,0,.62.19,3.3,3.3,0,0,0,.6.05,3.39,3.39,0,0,0,.74-.09,2.68,2.68,0,0,0,.75-.3,2.17,2.17,0,0,0,.58-.55,1.37,1.37,0,0,0,.23-.82Z"></path><path d="M205.46,42.72h-1.94V41.46h0a2.43,2.43,0,0,1-1.21,1.16,4,4,0,0,1-1.67.35,4.53,4.53,0,0,1-1.92-.38,3.77,3.77,0,0,1-1.36-1.06,4.5,4.5,0,0,1-.81-1.57,6.86,6.86,0,0,1-.27-2,6.2,6.2,0,0,1,.34-2.18,4.46,4.46,0,0,1,.91-1.52,3.63,3.63,0,0,1,1.3-.87,4.22,4.22,0,0,1,1.48-.28,5.33,5.33,0,0,1,.88.08,3.81,3.81,0,0,1,.87.27,3.62,3.62,0,0,1,.76.45,2.64,2.64,0,0,1,.59.66h0V29.87h2.05Zm-7.16-4.55a4.29,4.29,0,0,0,.16,1.17,3.16,3.16,0,0,0,.46,1,2.4,2.4,0,0,0,.8.72,2.37,2.37,0,0,0,1.16.27,2.21,2.21,0,0,0,1.17-.29,2.56,2.56,0,0,0,.82-.75,3.56,3.56,0,0,0,.46-1.05,4.82,4.82,0,0,0,.16-1.2,3.76,3.76,0,0,0-.7-2.41,2.51,2.51,0,0,0-3.09-.57,2.59,2.59,0,0,0-.81.77,3.25,3.25,0,0,0-.45,1.08A5.75,5.75,0,0,0,198.3,38.17Z"></path><path d="M212,43a5,5,0,0,1-2-.37,4.15,4.15,0,0,1-1.47-1,4.46,4.46,0,0,1-.92-1.55,6,6,0,0,1-.31-2,5.88,5.88,0,0,1,.31-2,4.37,4.37,0,0,1,.92-1.55,4.31,4.31,0,0,1,1.47-1,5.23,5.23,0,0,1,2-.37,5.15,5.15,0,0,1,2,.37,4.25,4.25,0,0,1,1.48,1,4.37,4.37,0,0,1,.92,1.55,5.88,5.88,0,0,1,.31,2,6,6,0,0,1-.31,2,4.46,4.46,0,0,1-.92,1.55,4.1,4.1,0,0,1-1.48,1A5,5,0,0,1,212,43Zm0-1.62a2.26,2.26,0,0,0,1.19-.29,2.49,2.49,0,0,0,.83-.75,3.15,3.15,0,0,0,.48-1.05,4.84,4.84,0,0,0,0-2.39,3,3,0,0,0-.48-1,2.49,2.49,0,0,0-.83-.75,2.57,2.57,0,0,0-2.37,0,2.4,2.4,0,0,0-.83.75,3,3,0,0,0-.48,1,4.84,4.84,0,0,0,0,2.39,3.15,3.15,0,0,0,.48,1.05,2.4,2.4,0,0,0,.83.75A2.25,2.25,0,0,0,212,41.35Z"></path><path d="M218.42,33.42h2v1.26h0a2.54,2.54,0,0,1,1.21-1.17,4.08,4.08,0,0,1,1.68-.35,4.37,4.37,0,0,1,1.91.39,3.77,3.77,0,0,1,1.36,1.06,4.64,4.64,0,0,1,.81,1.58,6.65,6.65,0,0,1,.27,1.92,6.89,6.89,0,0,1-.24,1.82,4.69,4.69,0,0,1-.74,1.56,3.57,3.57,0,0,1-3,1.48,4.56,4.56,0,0,1-.9-.08,3.79,3.79,0,0,1-.87-.26,3.28,3.28,0,0,1-.76-.46,2.33,2.33,0,0,1-.59-.66h0v4.65h-2.06Zm7.17,4.66a4.61,4.61,0,0,0-.16-1.23,3.38,3.38,0,0,0-.49-1.05,2.5,2.5,0,0,0-.81-.74,2.5,2.5,0,0,0-3.07.62,4,4,0,0,0-.66,2.4,4.49,4.49,0,0,0,.18,1.3,2.89,2.89,0,0,0,.51,1,2.55,2.55,0,0,0,.82.68,2.26,2.26,0,0,0,1.1.25,2.21,2.21,0,0,0,1.19-.29,2.47,2.47,0,0,0,.8-.74,3.09,3.09,0,0,0,.45-1A5.3,5.3,0,0,0,225.59,38.08Z"></path><path d="M237.16,40.65a1.17,1.17,0,0,0,.1.54.42.42,0,0,0,.39.16h.22l.28,0v1.42l-.28.08-.35.08-.36.06h-.3a2,2,0,0,1-1.05-.25,1.3,1.3,0,0,1-.54-.88,3.65,3.65,0,0,1-1.5.86,5.91,5.91,0,0,1-1.72.27,4.07,4.07,0,0,1-1.21-.17,3.08,3.08,0,0,1-1-.5,2.32,2.32,0,0,1-.7-.85,2.51,2.51,0,0,1-.26-1.19,2.78,2.78,0,0,1,.31-1.41A2.31,2.31,0,0,1,230,38a3.54,3.54,0,0,1,1.15-.45c.43-.09.85-.15,1.29-.2s.72-.13,1.06-.16a5.31,5.31,0,0,0,.89-.15,1.32,1.32,0,0,0,.61-.33.93.93,0,0,0,.23-.68,1.11,1.11,0,0,0-.19-.65,1.34,1.34,0,0,0-.47-.38,2,2,0,0,0-.62-.18,5.13,5.13,0,0,0-.65,0,2.56,2.56,0,0,0-1.42.36,1.43,1.43,0,0,0-.63,1.12h-2a3.08,3.08,0,0,1,.43-1.5,3,3,0,0,1,1-.95,3.81,3.81,0,0,1,1.32-.5,7.68,7.68,0,0,1,1.52-.15,6.21,6.21,0,0,1,1.35.15,3.78,3.78,0,0,1,1.19.46,2.66,2.66,0,0,1,.86.84,2.34,2.34,0,0,1,.32,1.25Zm-2-2.59a2.52,2.52,0,0,1-1.15.37,12.88,12.88,0,0,0-1.37.19,3.4,3.4,0,0,0-.63.15,2.27,2.27,0,0,0-.54.27,1.1,1.1,0,0,0-.37.45,1.56,1.56,0,0,0-.13.68.81.81,0,0,0,.2.57,1.4,1.4,0,0,0,.47.37,2.41,2.41,0,0,0,.61.19,3.48,3.48,0,0,0,.61.05,3.39,3.39,0,0,0,.74-.09,2.5,2.5,0,0,0,.74-.3,2.07,2.07,0,0,0,.59-.55,1.44,1.44,0,0,0,.23-.82Z"></path><path d="M248,42.23a4,4,0,0,1-1.18,3.15,5,5,0,0,1-3.39,1,7.49,7.49,0,0,1-1.41-.14,4.22,4.22,0,0,1-1.3-.49,3.12,3.12,0,0,1-1-.9,2.8,2.8,0,0,1-.47-1.37h2.05a1.54,1.54,0,0,0,.82,1.13,2,2,0,0,0,.66.2,6.12,6.12,0,0,0,.76,0,2.37,2.37,0,0,0,1.81-.61,2.46,2.46,0,0,0,.58-1.76V41.08h0a3.16,3.16,0,0,1-2.79,1.64,4.23,4.23,0,0,1-1.9-.39,3.51,3.51,0,0,1-1.29-1.06,4.38,4.38,0,0,1-.75-1.55,7.22,7.22,0,0,1-.23-1.9,5.57,5.57,0,0,1,.28-1.78,4.65,4.65,0,0,1,.83-1.48,3.85,3.85,0,0,1,1.33-1,4,4,0,0,1,1.77-.38,3.64,3.64,0,0,1,1.62.37,2.54,2.54,0,0,1,1.13,1.16h0V33.42h2Zm-4.55-1.13a2.24,2.24,0,0,0,1.16-.28,2.27,2.27,0,0,0,.77-.74,3.13,3.13,0,0,0,.43-1,5.21,5.21,0,0,0,.14-1.18,4.89,4.89,0,0,0-.14-1.15,3.2,3.2,0,0,0-.45-1,2,2,0,0,0-.77-.68,2.4,2.4,0,0,0-1.14-.26,2.22,2.22,0,0,0-1.16.29,2.24,2.24,0,0,0-.75.75,3.34,3.34,0,0,0-.42,1A5.79,5.79,0,0,0,241,38a4.73,4.73,0,0,0,.14,1.13,3.49,3.49,0,0,0,.44,1,2.32,2.32,0,0,0,.76.7A2.15,2.15,0,0,0,243.43,41.1Z"></path><path d="M254.32,43a5,5,0,0,1-2-.37,4.1,4.1,0,0,1-1.48-1,4.46,4.46,0,0,1-.92-1.55,6,6,0,0,1-.31-2,5.88,5.88,0,0,1,.31-2,4.37,4.37,0,0,1,.92-1.55,4.25,4.25,0,0,1,1.48-1,5.51,5.51,0,0,1,4,0,4.25,4.25,0,0,1,1.48,1,4.37,4.37,0,0,1,.92,1.55,5.88,5.88,0,0,1,.31,2,6,6,0,0,1-.31,2,4.46,4.46,0,0,1-.92,1.55,4.1,4.1,0,0,1-1.48,1A5,5,0,0,1,254.32,43Zm0-1.62a2.25,2.25,0,0,0,1.18-.29,2.4,2.4,0,0,0,.83-.75,3.15,3.15,0,0,0,.48-1.05,4.84,4.84,0,0,0,0-2.39,3,3,0,0,0-.48-1,2.4,2.4,0,0,0-.83-.75,2.57,2.57,0,0,0-2.37,0,2.49,2.49,0,0,0-.83.75,3.16,3.16,0,0,0-.48,1,4.84,4.84,0,0,0,0,2.39,3.36,3.36,0,0,0,.48,1.05,2.49,2.49,0,0,0,.83.75A2.26,2.26,0,0,0,254.32,41.35Z"></path><path d="M149,50.72a3.9,3.9,0,0,1,1.22.19,2.72,2.72,0,0,1,.93.56,2.52,2.52,0,0,1,.61.91,3.21,3.21,0,0,1,.21,1.2,3.3,3.3,0,0,1-.21,1.21,2.53,2.53,0,0,1-1.54,1.46,3.9,3.9,0,0,1-1.22.19h-3.49v4.28h-.95v-10Zm-.21,4.91a2.45,2.45,0,0,0,1.61-.51,2.25,2.25,0,0,0,0-3.08,2.5,2.5,0,0,0-1.61-.5h-3.28v4.09Z"></path><path d="M153.42,54.62a2.18,2.18,0,0,1,.61-.76,2.64,2.64,0,0,1,.91-.43,4,4,0,0,1,1.14-.14,5.2,5.2,0,0,1,1,.09,2.27,2.27,0,0,1,.85.34,2,2,0,0,1,.62.71,2.66,2.66,0,0,1,.23,1.18v3.84a.47.47,0,0,0,.52.53.64.64,0,0,0,.28-.06v.75l-.27,0H159a1.32,1.32,0,0,1-.54-.09.75.75,0,0,1-.32-.26A1,1,0,0,1,158,60a2.64,2.64,0,0,1,0-.51h0a6.69,6.69,0,0,1-.48.62,2,2,0,0,1-.55.46,2.62,2.62,0,0,1-.68.28,4,4,0,0,1-.92.1,3.56,3.56,0,0,1-.94-.12,2.14,2.14,0,0,1-.77-.38,1.7,1.7,0,0,1-.52-.66,2.1,2.1,0,0,1-.19-.94,1.85,1.85,0,0,1,.34-1.19,2.16,2.16,0,0,1,.88-.65,5.08,5.08,0,0,1,1.25-.31l1.41-.18c.18,0,.35,0,.49-.07a.92.92,0,0,0,.35-.14.7.7,0,0,0,.21-.29,1.09,1.09,0,0,0,.08-.48,1.69,1.69,0,0,0-.14-.73,1.22,1.22,0,0,0-.41-.46,1.6,1.6,0,0,0-.6-.23A4.35,4.35,0,0,0,156,54a2.19,2.19,0,0,0-1.37.4,1.54,1.54,0,0,0-.56,1.28h-.88A3.17,3.17,0,0,1,153.42,54.62Zm4.41,2.15a.48.48,0,0,1-.32.23,2.92,2.92,0,0,1-.42.09c-.37.07-.76.13-1.15.18a6.53,6.53,0,0,0-1.09.23,2.13,2.13,0,0,0-.8.44,1.06,1.06,0,0,0-.32.82,1.47,1.47,0,0,0,.13.6,1.56,1.56,0,0,0,.88.73,1.8,1.8,0,0,0,.6.1,3.12,3.12,0,0,0,1-.15,2.6,2.6,0,0,0,.8-.45,2.3,2.3,0,0,0,.55-.72,2.21,2.21,0,0,0,.2-.95V56.77Z"></path><path d="M166.44,61.57a2.8,2.8,0,0,1-.56,1.1,2.4,2.4,0,0,1-1,.68,4.12,4.12,0,0,1-1.49.24,4.74,4.74,0,0,1-1.07-.12,3.23,3.23,0,0,1-.93-.4,2.35,2.35,0,0,1-.69-.68,2,2,0,0,1-.31-1h.88a1.6,1.6,0,0,0,.28.68,1.55,1.55,0,0,0,.48.44,2.35,2.35,0,0,0,.64.24,3.38,3.38,0,0,0,.72.08,2.09,2.09,0,0,0,1.77-.7,3.2,3.2,0,0,0,.55-2v-1h0a2.57,2.57,0,0,1-.9,1.08,2.42,2.42,0,0,1-1.39.41,3.53,3.53,0,0,1-1.49-.29,2.74,2.74,0,0,1-1-.79,3.18,3.18,0,0,1-.58-1.18,5.29,5.29,0,0,1-.19-1.45,4.63,4.63,0,0,1,.22-1.41,3.71,3.71,0,0,1,.63-1.16,3,3,0,0,1,1-.79,3.27,3.27,0,0,1,1.4-.28,2.37,2.37,0,0,1,.76.11,2.44,2.44,0,0,1,.65.31,3,3,0,0,1,.52.47,2,2,0,0,1,.36.56h0V53.5h.88v6.63A5.69,5.69,0,0,1,166.44,61.57Zm-2-1.92a2.25,2.25,0,0,0,.73-.64,2.9,2.9,0,0,0,.44-.92,3.84,3.84,0,0,0,.15-1.07A4.33,4.33,0,0,0,165.6,56a3,3,0,0,0-.4-1,2.19,2.19,0,0,0-.72-.7,2,2,0,0,0-1.07-.27,2.16,2.16,0,0,0-1.08.26,2.2,2.2,0,0,0-.74.68,2.8,2.8,0,0,0-.43,1A4.45,4.45,0,0,0,161,57a3.83,3.83,0,0,0,.14,1.07,2.68,2.68,0,0,0,.43.92,2.29,2.29,0,0,0,.74.64,2.23,2.23,0,0,0,1.07.24A2,2,0,0,0,164.41,59.65Z"></path><path d="M172.81,53.59a3.38,3.38,0,0,1,1.07.83,3.64,3.64,0,0,1,.66,1.21,5.09,5.09,0,0,1,0,3,3.64,3.64,0,0,1-.66,1.21,3.22,3.22,0,0,1-1.07.82,3.45,3.45,0,0,1-1.47.3,3.4,3.4,0,0,1-1.46-.3,3.22,3.22,0,0,1-1.07-.82,3.64,3.64,0,0,1-.66-1.21,5.09,5.09,0,0,1,0-3,3.64,3.64,0,0,1,.66-1.21,3.14,3.14,0,0,1,2.53-1.13A3.45,3.45,0,0,1,172.81,53.59Zm-2.57.71a2.31,2.31,0,0,0-.79.7,3.09,3.09,0,0,0-.48,1,4.07,4.07,0,0,0,0,2.26,3.31,3.31,0,0,0,.48,1,2.31,2.31,0,0,0,.79.7,2.19,2.19,0,0,0,1.1.27,2.23,2.23,0,0,0,1.11-.27,2.31,2.31,0,0,0,.79-.7,3.31,3.31,0,0,0,.48-1,4.07,4.07,0,0,0,0-2.26,3.09,3.09,0,0,0-.48-1,2.31,2.31,0,0,0-.79-.7,2.23,2.23,0,0,0-1.11-.27A2.19,2.19,0,0,0,170.24,54.3Z"></path><path d="M180.23,54.9a1.4,1.4,0,0,0-.41-.49,1.71,1.71,0,0,0-.59-.29,2.84,2.84,0,0,0-.72-.09,3,3,0,0,0-.59.06,1.8,1.8,0,0,0-.56.21,1.24,1.24,0,0,0-.4.39,1.07,1.07,0,0,0-.16.58.8.8,0,0,0,.15.5,1.2,1.2,0,0,0,.37.34,2,2,0,0,0,.49.24,4.19,4.19,0,0,0,.49.14l1.18.27a3.47,3.47,0,0,1,.75.2,2.73,2.73,0,0,1,.66.39,1.88,1.88,0,0,1,.46.58,1.7,1.7,0,0,1,.19.83,1.78,1.78,0,0,1-.27,1,2.07,2.07,0,0,1-.68.67,2.56,2.56,0,0,1-.93.37,4.57,4.57,0,0,1-1,.12,3.29,3.29,0,0,1-2.07-.61,2.56,2.56,0,0,1-.9-1.93h.88a1.76,1.76,0,0,0,.65,1.35,2.33,2.33,0,0,0,1.48.46,3.18,3.18,0,0,0,.67-.07,2.28,2.28,0,0,0,.63-.24,1.33,1.33,0,0,0,.48-.43,1,1,0,0,0,.19-.63,1,1,0,0,0-.13-.54,1.16,1.16,0,0,0-.36-.37,2.4,2.4,0,0,0-.51-.24,5.54,5.54,0,0,0-.58-.17l-1.13-.25a6.84,6.84,0,0,1-.8-.26,3,3,0,0,1-.64-.36,1.58,1.58,0,0,1-.42-.54,1.63,1.63,0,0,1-.16-.77,1.67,1.67,0,0,1,.25-.94,1.9,1.9,0,0,1,.63-.63,3,3,0,0,1,.88-.35,3.93,3.93,0,0,1,1-.11,3.29,3.29,0,0,1,1,.14,2.34,2.34,0,0,1,.83.43,2.16,2.16,0,0,1,.57.73,2.47,2.47,0,0,1,.23,1h-.88A1.58,1.58,0,0,0,180.23,54.9Z"></path><path d="M191.13,54.49a1.93,1.93,0,0,0-1.38-.46,2.16,2.16,0,0,0-1.1.27,2.31,2.31,0,0,0-.79.7,3.09,3.09,0,0,0-.48,1,4.07,4.07,0,0,0,0,2.26,3.31,3.31,0,0,0,.48,1,2.31,2.31,0,0,0,.79.7,2.16,2.16,0,0,0,1.1.27,2,2,0,0,0,.77-.15,2.23,2.23,0,0,0,.65-.43,2.38,2.38,0,0,0,.46-.65,2.48,2.48,0,0,0,.22-.83h.88a3.32,3.32,0,0,1-1,2,2.84,2.84,0,0,1-2,.74,3.37,3.37,0,0,1-1.46-.3,3.22,3.22,0,0,1-1.07-.82,3.64,3.64,0,0,1-.66-1.21,5.09,5.09,0,0,1,0-3,3.64,3.64,0,0,1,.66-1.21,3.14,3.14,0,0,1,2.53-1.13,3.15,3.15,0,0,1,2,.61,2.6,2.6,0,0,1,1,1.86h-.88A2.46,2.46,0,0,0,191.13,54.49Z"></path><path d="M198.48,53.59a3.28,3.28,0,0,1,1.07.83,3.64,3.64,0,0,1,.66,1.21,4.88,4.88,0,0,1,0,3,3.64,3.64,0,0,1-.66,1.21,3.12,3.12,0,0,1-1.07.82,3.7,3.7,0,0,1-2.92,0,3.12,3.12,0,0,1-1.07-.82,3.64,3.64,0,0,1-.66-1.21,4.88,4.88,0,0,1,0-3,3.64,3.64,0,0,1,.66-1.21,3.28,3.28,0,0,1,1.07-.83,3.7,3.7,0,0,1,2.92,0Zm-2.57.71a2.41,2.41,0,0,0-.79.7,2.88,2.88,0,0,0-.47,1,4.07,4.07,0,0,0,0,2.26,3.07,3.07,0,0,0,.47,1,2.41,2.41,0,0,0,.79.7,2.42,2.42,0,0,0,2.22,0,2.41,2.41,0,0,0,.79-.7,3.07,3.07,0,0,0,.47-1,4.07,4.07,0,0,0,0-2.26,2.88,2.88,0,0,0-.47-1,2.41,2.41,0,0,0-.79-.7,2.42,2.42,0,0,0-2.22,0Z"></path><path d="M202.62,53.5v1.24h0a2.07,2.07,0,0,1,.89-1.05,2.61,2.61,0,0,1,1.42-.4,3.56,3.56,0,0,1,1.26.19A2,2,0,0,1,207,54a2,2,0,0,1,.44.87,5.17,5.17,0,0,1,.12,1.16v4.65h-.88V56.21a4.65,4.65,0,0,0-.08-.86,1.88,1.88,0,0,0-.3-.69,1.41,1.41,0,0,0-.56-.46,2.14,2.14,0,0,0-.89-.17,2.21,2.21,0,0,0-.95.19,2,2,0,0,0-.7.52,2.29,2.29,0,0,0-.44.78,3.11,3.11,0,0,0-.18,1v4.21h-.88V53.5Z"></path><path d="M216,53.5v.74h-1.47v4.87a1.56,1.56,0,0,0,.12.68q.12.24.6.27a6.28,6.28,0,0,0,.75,0v.74l-.39,0h-.39a1.72,1.72,0,0,1-1.23-.34,1.7,1.7,0,0,1-.34-1.27V54.24h-1.26V53.5h1.26V51.33h.88V53.5Z"></path><path d="M217.49,54.62a2,2,0,0,1,.61-.76,2.51,2.51,0,0,1,.9-.43,4.12,4.12,0,0,1,1.15-.14,5.17,5.17,0,0,1,.95.09,2.2,2.2,0,0,1,.85.34,1.87,1.87,0,0,1,.62.71,2.53,2.53,0,0,1,.24,1.18v3.84a.46.46,0,0,0,.51.53.61.61,0,0,0,.28-.06v.75l-.27,0H223a1.38,1.38,0,0,1-.54-.09.72.72,0,0,1-.31-.26A.84.84,0,0,1,222,60a3.77,3.77,0,0,1,0-.51h0a5.36,5.36,0,0,1-.49.62,2.13,2.13,0,0,1-.54.46,2.69,2.69,0,0,1-.69.28,4,4,0,0,1-.92.1,3.56,3.56,0,0,1-.94-.12,2.22,2.22,0,0,1-.77-.38,1.8,1.8,0,0,1-.52-.66,2.1,2.1,0,0,1-.19-.94,1.85,1.85,0,0,1,.34-1.19,2.13,2.13,0,0,1,.89-.65,5,5,0,0,1,1.24-.31l1.41-.18.49-.07a.86.86,0,0,0,.35-.14.72.72,0,0,0,.22-.29,1.28,1.28,0,0,0,.07-.48,1.56,1.56,0,0,0-.14-.73,1.14,1.14,0,0,0-.41-.46,1.6,1.6,0,0,0-.6-.23A4.23,4.23,0,0,0,220,54a2.22,2.22,0,0,0-1.38.4,1.57,1.57,0,0,0-.56,1.28h-.88A3,3,0,0,1,217.49,54.62Zm4.41,2.15a.52.52,0,0,1-.33.23,2.45,2.45,0,0,1-.42.09c-.37.07-.75.13-1.15.18a6.53,6.53,0,0,0-1.09.23,2.13,2.13,0,0,0-.8.44,1.06,1.06,0,0,0-.31.82,1.32,1.32,0,0,0,.13.6,1.27,1.27,0,0,0,.36.44,1.36,1.36,0,0,0,.51.29,1.8,1.8,0,0,0,.6.1,3.12,3.12,0,0,0,1-.15,2.65,2.65,0,0,0,.81-.45,2.27,2.27,0,0,0,.54-.72,2.07,2.07,0,0,0,.2-.95V56.77Z"></path><path d="M225.38,53.5v1.69h0a2.76,2.76,0,0,1,1-1.36,2.8,2.8,0,0,1,1.69-.43v.88a2.75,2.75,0,0,0-1.09.16,2.57,2.57,0,0,0-.85.54,2.36,2.36,0,0,0-.55.83,2.86,2.86,0,0,0-.2,1.06v3.85h-.88V53.5Z"></path><path d="M229.88,53.5v7.88a3.8,3.8,0,0,1-.07.77,1.7,1.7,0,0,1-.24.64,1.22,1.22,0,0,1-.47.43,1.58,1.58,0,0,1-.76.16H228l-.31,0v-.72l.24,0h.23c.34,0,.56-.1.65-.3a1.68,1.68,0,0,0,.14-.75V53.5Zm0-2.78v1.42H229V50.72Z"></path><path d="M232.22,58.33a2.6,2.6,0,0,0,.43.92,2.38,2.38,0,0,0,.74.67,2.06,2.06,0,0,0,1.08.27,2.12,2.12,0,0,0,1.51-.51,2.58,2.58,0,0,0,.76-1.34h.88a3.57,3.57,0,0,1-1,1.91,3.11,3.11,0,0,1-2.12.67,3.4,3.4,0,0,1-1.48-.3,2.74,2.74,0,0,1-1-.83,3.36,3.36,0,0,1-.58-1.22,5.36,5.36,0,0,1-.19-1.46,5.08,5.08,0,0,1,.19-1.4,3.49,3.49,0,0,1,.58-1.23,3,3,0,0,1,1-.86,3.14,3.14,0,0,1,1.48-.33,2.87,2.87,0,0,1,1.48.35,2.92,2.92,0,0,1,1,.91,4,4,0,0,1,.56,1.31,5.71,5.71,0,0,1,.14,1.49h-5.56A3.83,3.83,0,0,0,232.22,58.33Zm4.37-2.69a2.63,2.63,0,0,0-.46-.82,2.08,2.08,0,0,0-.71-.57,2,2,0,0,0-.95-.22,2,2,0,0,0-1,.22,2.08,2.08,0,0,0-.71.57,2.8,2.8,0,0,0-.47.83,4,4,0,0,0-.23,1h4.68A3.14,3.14,0,0,0,236.59,55.64Z"></path><path d="M241.71,53.5v.74h-1.47v4.87a1.56,1.56,0,0,0,.12.68c.08.16.27.25.59.27a6.45,6.45,0,0,0,.76,0v.74l-.4,0h-.39a1.72,1.72,0,0,1-1.23-.34,1.75,1.75,0,0,1-.33-1.27V54.24h-1.27V53.5h1.27V51.33h.88V53.5Z"></path><path d="M243.16,54.62a2.08,2.08,0,0,1,.61-.76,2.68,2.68,0,0,1,.9-.43,4.17,4.17,0,0,1,1.15-.14,5,5,0,0,1,1,.09,2.25,2.25,0,0,1,.86.34,1.85,1.85,0,0,1,.61.71,2.53,2.53,0,0,1,.24,1.18v3.84A.46.46,0,0,0,249,60a.64.64,0,0,0,.28-.06v.75l-.27,0h-.3a1.32,1.32,0,0,1-.54-.09.75.75,0,0,1-.32-.26,1,1,0,0,1-.14-.4,2.64,2.64,0,0,1,0-.51h0a6.69,6.69,0,0,1-.48.62,2.17,2.17,0,0,1-.55.46,2.77,2.77,0,0,1-.68.28,4,4,0,0,1-.92.1,3.64,3.64,0,0,1-.95-.12,2.09,2.09,0,0,1-.76-.38,1.7,1.7,0,0,1-.52-.66,2.1,2.1,0,0,1-.19-.94,1.91,1.91,0,0,1,.33-1.19,2.19,2.19,0,0,1,.89-.65,5.08,5.08,0,0,1,1.25-.31l1.41-.18.49-.07a.92.92,0,0,0,.35-.14.7.7,0,0,0,.21-.29,1.26,1.26,0,0,0,.08-.48,1.55,1.55,0,0,0-.15-.73,1.12,1.12,0,0,0-.4-.46,1.67,1.67,0,0,0-.6-.23,4.35,4.35,0,0,0-.74-.06,2.19,2.19,0,0,0-1.37.4,1.54,1.54,0,0,0-.56,1.28h-.88A2.78,2.78,0,0,1,243.16,54.62Zm4.41,2.15a.48.48,0,0,1-.32.23,2.92,2.92,0,0,1-.42.09c-.37.07-.76.13-1.15.18a6.53,6.53,0,0,0-1.09.23,2.05,2.05,0,0,0-.8.44,1,1,0,0,0-.32.82,1.32,1.32,0,0,0,.13.6,1.56,1.56,0,0,0,.88.73,1.76,1.76,0,0,0,.6.1,3.12,3.12,0,0,0,1-.15,2.72,2.72,0,0,0,.8-.45,2.3,2.3,0,0,0,.55-.72,2.21,2.21,0,0,0,.2-.95V56.77Z"></path><path d="M254.4,54.9a1.4,1.4,0,0,0-.41-.49,1.71,1.71,0,0,0-.59-.29,2.78,2.78,0,0,0-.72-.09,3,3,0,0,0-.59.06,1.66,1.66,0,0,0-.55.21,1.18,1.18,0,0,0-.41.39,1.07,1.07,0,0,0-.16.58.8.8,0,0,0,.15.5,1.2,1.2,0,0,0,.37.34,2,2,0,0,0,.49.24,4.19,4.19,0,0,0,.49.14l1.18.27a3.47,3.47,0,0,1,.75.2,2.56,2.56,0,0,1,.66.39,2.06,2.06,0,0,1,.47.58,1.81,1.81,0,0,1,.18.83,1.78,1.78,0,0,1-.27,1,2.07,2.07,0,0,1-.68.67,2.56,2.56,0,0,1-.93.37,4.57,4.57,0,0,1-1,.12,3.29,3.29,0,0,1-2.07-.61,2.59,2.59,0,0,1-.9-1.93h.88a1.76,1.76,0,0,0,.65,1.35,2.33,2.33,0,0,0,1.48.46,3.18,3.18,0,0,0,.67-.07,2.28,2.28,0,0,0,.63-.24,1.33,1.33,0,0,0,.48-.43,1,1,0,0,0,.19-.63,1,1,0,0,0-.13-.54,1.16,1.16,0,0,0-.36-.37,2,2,0,0,0-.51-.24,5.54,5.54,0,0,0-.58-.17l-1.13-.25a6.84,6.84,0,0,1-.8-.26,3,3,0,0,1-.64-.36,1.58,1.58,0,0,1-.42-.54,1.63,1.63,0,0,1-.16-.77,1.67,1.67,0,0,1,.25-.94,1.9,1.9,0,0,1,.63-.63,3,3,0,0,1,.88-.35,3.93,3.93,0,0,1,1-.11,3.29,3.29,0,0,1,1,.14,2.34,2.34,0,0,1,.83.43,2.16,2.16,0,0,1,.57.73,2.64,2.64,0,0,1,.24,1h-.89A1.58,1.58,0,0,0,254.4,54.9Z"></path><path d="M261,53.5l2.38,6.16,2.22-6.16h.89l-3.14,8.31a8.39,8.39,0,0,1-.36.77,2.08,2.08,0,0,1-.37.47,1.23,1.23,0,0,1-.48.25,2.61,2.61,0,0,1-.69.08l-.42,0a1.09,1.09,0,0,1-.26,0v-.74l.3,0,.31,0a1.14,1.14,0,0,0,.48-.09,1,1,0,0,0,.33-.23,1.35,1.35,0,0,0,.24-.35l.2-.46.31-.82-2.88-7.19Z"></path><path d="M271.9,58.33a2.77,2.77,0,0,0,.42.92,2.41,2.41,0,0,0,.75.67,2,2,0,0,0,1.07.27,2.15,2.15,0,0,0,1.52-.51,2.63,2.63,0,0,0,.75-1.34h.88a3.56,3.56,0,0,1-1,1.91,3.12,3.12,0,0,1-2.13.67,3.32,3.32,0,0,1-1.47-.3,2.69,2.69,0,0,1-1-.83,3.72,3.72,0,0,1-.58-1.22,5.78,5.78,0,0,1-.19-1.46,5.49,5.49,0,0,1,.19-1.4,3.88,3.88,0,0,1,.58-1.23,3,3,0,0,1,1-.86,3.07,3.07,0,0,1,1.47-.33,2.91,2.91,0,0,1,1.49.35,3,3,0,0,1,1,.91,4,4,0,0,1,.55,1.31,5.71,5.71,0,0,1,.14,1.49h-5.56A3.86,3.86,0,0,0,271.9,58.33Zm4.37-2.69a2.63,2.63,0,0,0-.46-.82,2.18,2.18,0,0,0-.71-.57,2.2,2.2,0,0,0-1.92,0,2.22,2.22,0,0,0-.72.57,3,3,0,0,0-.47.83,4.54,4.54,0,0,0-.23,1h4.68A3.46,3.46,0,0,0,276.27,55.64Z"></path><path d="M279.38,53.5v1.24h0a2.11,2.11,0,0,1,.89-1.05,2.63,2.63,0,0,1,1.42-.4,3.65,3.65,0,0,1,1.27.19,1.93,1.93,0,0,1,.81.56,2,2,0,0,1,.44.87,5.14,5.14,0,0,1,.13,1.16v4.65h-.89V56.21a3.93,3.93,0,0,0-.08-.86,1.88,1.88,0,0,0-.3-.69,1.34,1.34,0,0,0-.56-.46,2.14,2.14,0,0,0-.89-.17,2.21,2.21,0,0,0-.95.19,2.1,2.1,0,0,0-.7.52,2.49,2.49,0,0,0-.45.78,3.42,3.42,0,0,0-.17,1v4.21h-.88V53.5Z"></path><path d="M290.57,58.33a2.6,2.6,0,0,0,.43.92,2.38,2.38,0,0,0,.74.67,2.06,2.06,0,0,0,1.08.27,2.12,2.12,0,0,0,1.51-.51,2.58,2.58,0,0,0,.76-1.34H296a3.57,3.57,0,0,1-1,1.91,3.11,3.11,0,0,1-2.12.67,3.4,3.4,0,0,1-1.48-.3,2.74,2.74,0,0,1-1-.83,3.53,3.53,0,0,1-.58-1.22,5.36,5.36,0,0,1-.19-1.46,5.08,5.08,0,0,1,.19-1.4,3.67,3.67,0,0,1,.58-1.23,3,3,0,0,1,1-.86,3.14,3.14,0,0,1,1.48-.33,2.87,2.87,0,0,1,1.48.35,2.92,2.92,0,0,1,1,.91,3.77,3.77,0,0,1,.56,1.31,5.71,5.71,0,0,1,.14,1.49h-5.56A3.83,3.83,0,0,0,290.57,58.33Zm4.37-2.69a2.83,2.83,0,0,0-.45-.82,2.22,2.22,0,0,0-.72-.57,2,2,0,0,0-.95-.22,2,2,0,0,0-1,.22,2.18,2.18,0,0,0-.71.57,2.8,2.8,0,0,0-.47.83,4,4,0,0,0-.23,1h4.68A3.14,3.14,0,0,0,294.94,55.64Z"></path><path d="M298.55,54.24v6.48h-.89V54.24h-1.23V53.5h1.23v-.66a5.76,5.76,0,0,1,.07-.86,1.75,1.75,0,0,1,.27-.67,1.29,1.29,0,0,1,.54-.43,2.18,2.18,0,0,1,.87-.16l.37,0,.38,0v.76l-.34,0a1.56,1.56,0,0,0-.31,0,1.09,1.09,0,0,0-.56.11.63.63,0,0,0-.28.3,1,1,0,0,0-.11.44c0,.17,0,.35,0,.55v.63H300v.74Z"></path><path d="M301.46,58.33a2.78,2.78,0,0,0,.43.92,2.49,2.49,0,0,0,.74.67,2.06,2.06,0,0,0,1.08.27,2.11,2.11,0,0,0,1.51-.51,2.58,2.58,0,0,0,.76-1.34h.88a3.51,3.51,0,0,1-1,1.91,3.1,3.1,0,0,1-2.12.67,3.4,3.4,0,0,1-1.48-.3,2.74,2.74,0,0,1-1-.83,3.72,3.72,0,0,1-.58-1.22,5.36,5.36,0,0,1-.19-1.46,5.08,5.08,0,0,1,.19-1.4,3.88,3.88,0,0,1,.58-1.23,3,3,0,0,1,1-.86,3.14,3.14,0,0,1,1.48-.33,2.91,2.91,0,0,1,1.49.35,3,3,0,0,1,1,.91,4,4,0,0,1,.55,1.31,5.71,5.71,0,0,1,.14,1.49h-5.56A4.33,4.33,0,0,0,301.46,58.33Zm4.37-2.69a2.61,2.61,0,0,0-.45-.82,2.22,2.22,0,0,0-.72-.57,2,2,0,0,0-1-.22,2,2,0,0,0-1,.22,2.22,2.22,0,0,0-.72.57,3,3,0,0,0-.47.83,4.54,4.54,0,0,0-.23,1H306A3.14,3.14,0,0,0,305.83,55.64Z"></path><path d="M312.5,54.49a1.89,1.89,0,0,0-1.37-.46,2.16,2.16,0,0,0-1.1.27,2.44,2.44,0,0,0-.8.7,3.3,3.3,0,0,0-.47,1,4.07,4.07,0,0,0,0,2.26,3.55,3.55,0,0,0,.47,1,2.44,2.44,0,0,0,.8.7,2.16,2.16,0,0,0,1.1.27,2,2,0,0,0,.77-.15A2.14,2.14,0,0,0,313,59a2.48,2.48,0,0,0,.22-.83h.88a3.32,3.32,0,0,1-1,2,2.84,2.84,0,0,1-2,.74,3.37,3.37,0,0,1-1.46-.3,3.12,3.12,0,0,1-1.07-.82,3.64,3.64,0,0,1-.66-1.21,4.88,4.88,0,0,1,0-3,3.64,3.64,0,0,1,.66-1.21,3.28,3.28,0,0,1,1.07-.83,3.37,3.37,0,0,1,1.46-.3,3.15,3.15,0,0,1,2,.61,2.64,2.64,0,0,1,1,1.86h-.88A2.47,2.47,0,0,0,312.5,54.49Z"></path><path d="M318.21,53.5v.74h-1.46v4.87a1.56,1.56,0,0,0,.12.68c.07.16.27.25.59.27a6.28,6.28,0,0,0,.75,0v.74l-.39,0h-.39a1.72,1.72,0,0,1-1.23-.34,1.74,1.74,0,0,1-.34-1.27V54.24H314.6V53.5h1.26V51.33h.89V53.5Z"></path><path d="M320.39,50.72v1.42h-.89V50.72Zm0,2.78v7.22h-.89V53.5Z"></path><path d="M322.25,53.5l2.27,6.34h0l2.24-6.34h.91L325,60.72h-.94l-2.78-7.22Z"></path><path d="M333.08,53.59a3.38,3.38,0,0,1,1.07.83,3.45,3.45,0,0,1,.65,1.21,4.88,4.88,0,0,1,0,3,3.45,3.45,0,0,1-.65,1.21,3.22,3.22,0,0,1-1.07.82,3.45,3.45,0,0,1-1.47.3,3.37,3.37,0,0,1-1.46-.3,3.12,3.12,0,0,1-1.07-.82,3.64,3.64,0,0,1-.66-1.21,5.09,5.09,0,0,1,0-3,3.64,3.64,0,0,1,.66-1.21,3.28,3.28,0,0,1,1.07-.83,3.37,3.37,0,0,1,1.46-.3A3.45,3.45,0,0,1,333.08,53.59Zm-2.57.71a2.31,2.31,0,0,0-.79.7,3.09,3.09,0,0,0-.48,1,4.07,4.07,0,0,0,0,2.26,3.31,3.31,0,0,0,.48,1,2.31,2.31,0,0,0,.79.7,2.16,2.16,0,0,0,1.1.27,2.23,2.23,0,0,0,1.11-.27,2.31,2.31,0,0,0,.79-.7,3.31,3.31,0,0,0,.48-1A4.07,4.07,0,0,0,334,56a3.09,3.09,0,0,0-.48-1,2.31,2.31,0,0,0-.79-.7,2.23,2.23,0,0,0-1.11-.27A2.16,2.16,0,0,0,330.51,54.3Z"></path><path d="M336.86,59.24H338v1.48h-1.18Z"></path></g><g><path class="cls-1" d="M117.89,27.83h-42a4.73,4.73,0,0,0-4.73,4.73V57.44a4.73,4.73,0,0,0,4.73,4.73h42a4.73,4.73,0,0,0,4.72-4.73V32.56A4.73,4.73,0,0,0,117.89,27.83Zm-42,3h42a1.73,1.73,0,0,1,1.72,1.73v3.26H74.15V32.56A1.73,1.73,0,0,1,75.88,30.83Zm42,28.34h-42a1.73,1.73,0,0,1-1.73-1.73V41.57h45.46V57.44A1.73,1.73,0,0,1,117.89,59.17Z"></path><rect class="cls-1" x="77.98" y="52.27" width="15.47" height="1.84"></rect><rect class="cls-1" x="96.29" y="52.27" width="6.07" height="1.84"></rect></g></g></svg>