<svg xmlns="http://www.w3.org/2000/svg" id="Capa_1" data-name="Capa 1" viewBox="0 0 418.78 90"><defs><style>.cls-1{fill:#3481f8;}</style></defs><path d="M130,29.87h9.25v1.94h-7v3.37h6.48V37h-6.48v3.77h7.12v1.94H130Z"></path><path d="M141,33.42H143v1.36l0,0a3.48,3.48,0,0,1,1.22-1.22,3.32,3.32,0,0,1,1.68-.44,3.47,3.47,0,0,1,2.41.8,3,3,0,0,1,.88,2.37v6.39h-2.05V36.87a2.55,2.55,0,0,0-.47-1.59,1.71,1.71,0,0,0-1.35-.5,2.27,2.27,0,0,0-.93.19,2.08,2.08,0,0,0-.71.52,2.66,2.66,0,0,0-.45.79,2.71,2.71,0,0,0-.16.95v5.49H141Z"></path><path d="M150.09,33.42h2.23l2.36,7.14h0L157,33.42h2.13l-3.33,9.3h-2.31Z"></path><path d="M162,29.55h2.43l-2.56,2.57h-1.49Zm-1.62,13.17v-9.3h2v9.3Z"></path><path d="M168.77,43a5,5,0,0,1-2-.37,4.1,4.1,0,0,1-1.48-1,4.46,4.46,0,0,1-.92-1.55,6,6,0,0,1-.31-2,5.88,5.88,0,0,1,.31-2,4.37,4.37,0,0,1,.92-1.55,4.25,4.25,0,0,1,1.48-1,5.51,5.51,0,0,1,4,0,4.25,4.25,0,0,1,1.48,1,4.37,4.37,0,0,1,.92,1.55,5.88,5.88,0,0,1,.31,2,6,6,0,0,1-.31,2,4.46,4.46,0,0,1-.92,1.55,4.1,4.1,0,0,1-1.48,1A5,5,0,0,1,168.77,43Zm0-1.62a2.25,2.25,0,0,0,1.18-.29,2.4,2.4,0,0,0,.83-.75,3.15,3.15,0,0,0,.48-1.05,4.84,4.84,0,0,0,0-2.39,3,3,0,0,0-.48-1,2.4,2.4,0,0,0-.83-.75,2.57,2.57,0,0,0-2.37,0,2.49,2.49,0,0,0-.83.75,3,3,0,0,0-.48,1,4.84,4.84,0,0,0,0,2.39,3.15,3.15,0,0,0,.48,1.05,2.49,2.49,0,0,0,.83.75A2.26,2.26,0,0,0,168.77,41.35Z"></path><path d="M176.65,39.73a1.56,1.56,0,0,0,.68,1.26,2.71,2.71,0,0,0,1.43.36,5.25,5.25,0,0,0,.65,0,3.12,3.12,0,0,0,.7-.17,1.45,1.45,0,0,0,.53-.37.89.89,0,0,0,.19-.64,1,1,0,0,0-.29-.65,1.93,1.93,0,0,0-.69-.4,7.08,7.08,0,0,0-1-.27c-.36-.07-.72-.14-1.1-.23a9.34,9.34,0,0,1-1.1-.31,3.45,3.45,0,0,1-1-.48,2.3,2.3,0,0,1-.67-.78,2.48,2.48,0,0,1-.25-1.18,2.08,2.08,0,0,1,.37-1.27,2.76,2.76,0,0,1,.93-.83,4,4,0,0,1,1.26-.44,7.87,7.87,0,0,1,1.33-.13,5.65,5.65,0,0,1,1.37.16,3.6,3.6,0,0,1,1.19.49,3,3,0,0,1,.88.89,3,3,0,0,1,.44,1.32h-2.14a1.26,1.26,0,0,0-.67-1,2.8,2.8,0,0,0-1.22-.26c-.14,0-.31,0-.51,0a2.42,2.42,0,0,0-.56.13,1.35,1.35,0,0,0-.44.29.7.7,0,0,0-.18.5.8.8,0,0,0,.26.61,2.1,2.1,0,0,0,.68.39,7.13,7.13,0,0,0,1,.26l1.11.23a10.57,10.57,0,0,1,1.1.31,3.6,3.6,0,0,1,1,.48,2.24,2.24,0,0,1,.95,1.93,2.5,2.5,0,0,1-.38,1.4,2.94,2.94,0,0,1-1,.94,4.51,4.51,0,0,1-1.34.52,6.66,6.66,0,0,1-1.46.16,6,6,0,0,1-1.63-.2,3.66,3.66,0,0,1-1.29-.6,2.83,2.83,0,0,1-.87-1,3.14,3.14,0,0,1-.33-1.43Z"></path><path d="M195.69,40.65a1.19,1.19,0,0,0,.09.54.42.42,0,0,0,.39.16h.22l.29,0v1.42l-.28.08-.35.08-.36.06h-.31a1.93,1.93,0,0,1-1-.25,1.23,1.23,0,0,1-.54-.88,3.69,3.69,0,0,1-1.51.86,5.86,5.86,0,0,1-1.72.27,4,4,0,0,1-1.2-.17,3,3,0,0,1-1-.5,2.42,2.42,0,0,1-.7-.85,2.64,2.64,0,0,1-.26-1.19,2.78,2.78,0,0,1,.31-1.41,2.31,2.31,0,0,1,.83-.84,3.63,3.63,0,0,1,1.15-.45c.43-.09.86-.15,1.29-.2s.73-.13,1.06-.16a5.14,5.14,0,0,0,.89-.15,1.28,1.28,0,0,0,.61-.33.89.89,0,0,0,.23-.68,1,1,0,0,0-.19-.65,1.34,1.34,0,0,0-.47-.38,2,2,0,0,0-.62-.18,5,5,0,0,0-.65,0,2.58,2.58,0,0,0-1.42.36,1.43,1.43,0,0,0-.63,1.12h-2.05a3.19,3.19,0,0,1,.43-1.5,2.94,2.94,0,0,1,1-.95,3.81,3.81,0,0,1,1.32-.5,7.51,7.51,0,0,1,1.51-.15,6.07,6.07,0,0,1,1.35.15,3.94,3.94,0,0,1,1.2.46,2.62,2.62,0,0,1,.85.84,2.26,2.26,0,0,1,.33,1.25Zm-2.06-2.59a2.48,2.48,0,0,1-1.15.37,13.25,13.25,0,0,0-1.37.19,3.6,3.6,0,0,0-.63.15,2.27,2.27,0,0,0-.54.27,1.18,1.18,0,0,0-.37.45,1.56,1.56,0,0,0-.13.68.86.86,0,0,0,.2.57,1.4,1.4,0,0,0,.47.37,2.36,2.36,0,0,0,.62.19,3.3,3.3,0,0,0,.6.05,3.39,3.39,0,0,0,.74-.09,2.5,2.5,0,0,0,.74-.3,2.07,2.07,0,0,0,.59-.55,1.37,1.37,0,0,0,.23-.82Z"></path><path d="M200.18,33.42h1.55V30.63h2.05v2.79h1.85v1.52h-1.85v5a4.5,4.5,0,0,0,0,.56.94.94,0,0,0,.12.4.66.66,0,0,0,.3.24,1.54,1.54,0,0,0,.54.08h.43a2.12,2.12,0,0,0,.43-.06V42.7l-.66.07a4.92,4.92,0,0,1-.67,0,4.59,4.59,0,0,1-1.3-.15,1.75,1.75,0,0,1-.78-.45,1.67,1.67,0,0,1-.38-.75,6,6,0,0,1-.11-1V34.94h-1.55Z"></path><path d="M211.1,43a5,5,0,0,1-2-.37,4.1,4.1,0,0,1-1.48-1,4.46,4.46,0,0,1-.92-1.55,6,6,0,0,1-.31-2,5.88,5.88,0,0,1,.31-2,4.37,4.37,0,0,1,.92-1.55,4.25,4.25,0,0,1,1.48-1,5.51,5.51,0,0,1,4,0,4.25,4.25,0,0,1,1.48,1,4.37,4.37,0,0,1,.92,1.55,5.88,5.88,0,0,1,.31,2,6,6,0,0,1-.31,2,4.46,4.46,0,0,1-.92,1.55,4.1,4.1,0,0,1-1.48,1A5,5,0,0,1,211.1,43Zm0-1.62a2.26,2.26,0,0,0,1.19-.29,2.49,2.49,0,0,0,.83-.75,3.15,3.15,0,0,0,.48-1.05,4.84,4.84,0,0,0,0-2.39,3,3,0,0,0-.48-1,2.49,2.49,0,0,0-.83-.75,2.57,2.57,0,0,0-2.37,0,2.4,2.4,0,0,0-.83.75,3,3,0,0,0-.48,1,4.84,4.84,0,0,0,0,2.39,3.15,3.15,0,0,0,.48,1.05,2.4,2.4,0,0,0,.83.75A2.25,2.25,0,0,0,211.1,41.35Z"></path><path d="M226.29,42.72h-1.94V41.46h0a2.41,2.41,0,0,1-1.2,1.16,4,4,0,0,1-1.68.35,4.52,4.52,0,0,1-1.91-.38,3.77,3.77,0,0,1-1.36-1.06,4.5,4.5,0,0,1-.81-1.57,6.86,6.86,0,0,1-.27-2,6.2,6.2,0,0,1,.34-2.18,4.46,4.46,0,0,1,.91-1.52,3.68,3.68,0,0,1,1.29-.87,4.28,4.28,0,0,1,1.49-.28,5.33,5.33,0,0,1,.88.08,3.59,3.59,0,0,1,.86.27,3.46,3.46,0,0,1,.77.45,2.6,2.6,0,0,1,.58.66h0V29.87h2Zm-7.16-4.55a4.69,4.69,0,0,0,.15,1.17,3.18,3.18,0,0,0,.47,1,2.4,2.4,0,0,0,.8.72,2.33,2.33,0,0,0,1.15.27,2.22,2.22,0,0,0,1.18-.29,2.43,2.43,0,0,0,.81-.75,3.34,3.34,0,0,0,.47-1.05,4.81,4.81,0,0,0,.15-1.2,3.76,3.76,0,0,0-.69-2.41,2.28,2.28,0,0,0-1.88-.87,2.32,2.32,0,0,0-1.22.3,2.59,2.59,0,0,0-.81.77,3.25,3.25,0,0,0-.45,1.08A5.74,5.74,0,0,0,219.13,38.17Z"></path><path d="M232.74,43a5,5,0,0,1-2-.37,4.28,4.28,0,0,1-1.48-1,4.46,4.46,0,0,1-.92-1.55,6,6,0,0,1-.31-2,5.88,5.88,0,0,1,.31-2,4.37,4.37,0,0,1,.92-1.55,4.45,4.45,0,0,1,1.48-1,5.15,5.15,0,0,1,2-.37,5.23,5.23,0,0,1,2,.37,4.31,4.31,0,0,1,1.47,1,4.37,4.37,0,0,1,.92,1.55,5.88,5.88,0,0,1,.32,2,6,6,0,0,1-.32,2,4.46,4.46,0,0,1-.92,1.55,4.15,4.15,0,0,1-1.47,1A5,5,0,0,1,232.74,43Zm0-1.62a2.31,2.31,0,0,0,1.19-.29,2.46,2.46,0,0,0,.82-.75,3.15,3.15,0,0,0,.48-1.05,4.84,4.84,0,0,0,0-2.39,3,3,0,0,0-.48-1,2.46,2.46,0,0,0-.82-.75,2.41,2.41,0,0,0-1.19-.29,2.38,2.38,0,0,0-1.19.29,2.49,2.49,0,0,0-.83.75,3.37,3.37,0,0,0-.48,1,4.84,4.84,0,0,0,0,2.39,3.6,3.6,0,0,0,.48,1.05,2.49,2.49,0,0,0,.83.75A2.28,2.28,0,0,0,232.74,41.35Z"></path><path d="M243.53,38.6a3.59,3.59,0,0,0,.16,1,2.39,2.39,0,0,0,.46.88,2.11,2.11,0,0,0,.77.61,3,3,0,0,0,2.57-.16,2.34,2.34,0,0,0,.82-1.17h1.94a3.89,3.89,0,0,1-.56,1.35,3.78,3.78,0,0,1-.95,1,4.3,4.3,0,0,1-1.25.62A5.4,5.4,0,0,1,246,43a5,5,0,0,1-1.95-.36,4,4,0,0,1-1.43-1,4.25,4.25,0,0,1-.88-1.54,6.23,6.23,0,0,1-.3-2,5.58,5.58,0,0,1,.32-1.88,4.77,4.77,0,0,1,.9-1.57,4.26,4.26,0,0,1,1.41-1.07,4.35,4.35,0,0,1,1.87-.4,4.21,4.21,0,0,1,3.42,1.68,4.73,4.73,0,0,1,.84,1.73,5.52,5.52,0,0,1,.14,2Zm4.79-1.35a3.36,3.36,0,0,0-.2-.94,2.54,2.54,0,0,0-.47-.78,2.43,2.43,0,0,0-.72-.54,2.11,2.11,0,0,0-1-.21,2.59,2.59,0,0,0-1,.19,2.34,2.34,0,0,0-.75.52,2.82,2.82,0,0,0-.51.79,3.05,3.05,0,0,0-.21,1Z"></path><path d="M252,29.87h2.05V42.72H252Z"></path><path d="M259.58,33.42h1.94v1.26h0a2.56,2.56,0,0,1,1.2-1.17,4.11,4.11,0,0,1,1.68-.35,4.37,4.37,0,0,1,1.91.39,3.77,3.77,0,0,1,1.36,1.06,4.64,4.64,0,0,1,.81,1.58,6.65,6.65,0,0,1,.27,1.92,6.89,6.89,0,0,1-.24,1.82,4.69,4.69,0,0,1-.74,1.56,3.63,3.63,0,0,1-1.25,1.08,3.71,3.71,0,0,1-1.78.4,4.56,4.56,0,0,1-.9-.08,3.57,3.57,0,0,1-.86-.26,3.14,3.14,0,0,1-.77-.46,2.3,2.3,0,0,1-.58-.66h0v4.65h-2.05Zm7.16,4.66a4.61,4.61,0,0,0-.16-1.23,3.38,3.38,0,0,0-.49-1.05,2.4,2.4,0,0,0-.81-.74,2.48,2.48,0,0,0-3.06.62,4,4,0,0,0-.66,2.4,4.49,4.49,0,0,0,.17,1.3,2.89,2.89,0,0,0,.51,1,2.55,2.55,0,0,0,.82.68,2.33,2.33,0,0,0,1.11.25,2.23,2.23,0,0,0,1.19-.29,2.58,2.58,0,0,0,.8-.74,3.09,3.09,0,0,0,.45-1A5.29,5.29,0,0,0,266.74,38.08Z"></path><path d="M278.28,40.65a1.19,1.19,0,0,0,.09.54.42.42,0,0,0,.39.16H279l.29,0v1.42l-.28.08-.35.08-.36.06H278a1.93,1.93,0,0,1-1-.25,1.23,1.23,0,0,1-.54-.88,3.69,3.69,0,0,1-1.51.86,5.86,5.86,0,0,1-1.72.27,4,4,0,0,1-1.2-.17,3,3,0,0,1-1-.5,2.42,2.42,0,0,1-.7-.85,2.51,2.51,0,0,1-.26-1.19,2.78,2.78,0,0,1,.31-1.41,2.31,2.31,0,0,1,.83-.84,3.63,3.63,0,0,1,1.15-.45c.43-.09.86-.15,1.29-.2s.73-.13,1.06-.16a5.14,5.14,0,0,0,.89-.15,1.28,1.28,0,0,0,.61-.33.93.93,0,0,0,.23-.68,1,1,0,0,0-.19-.65,1.34,1.34,0,0,0-.47-.38,2,2,0,0,0-.62-.18,5,5,0,0,0-.65,0,2.58,2.58,0,0,0-1.42.36,1.43,1.43,0,0,0-.63,1.12h-2.05a3.19,3.19,0,0,1,.43-1.5,2.94,2.94,0,0,1,1-.95,3.74,3.74,0,0,1,1.32-.5,7.51,7.51,0,0,1,1.51-.15,6.07,6.07,0,0,1,1.35.15,3.94,3.94,0,0,1,1.2.46,2.62,2.62,0,0,1,.85.84,2.26,2.26,0,0,1,.33,1.25Zm-2.06-2.59a2.48,2.48,0,0,1-1.15.37,13.25,13.25,0,0,0-1.37.19,3.6,3.6,0,0,0-.63.15,2.27,2.27,0,0,0-.54.27,1.18,1.18,0,0,0-.37.45,1.56,1.56,0,0,0-.13.68.86.86,0,0,0,.2.57,1.4,1.4,0,0,0,.47.37,2.36,2.36,0,0,0,.62.19,3.3,3.3,0,0,0,.6.05,3.39,3.39,0,0,0,.74-.09,2.5,2.5,0,0,0,.74-.3,2.07,2.07,0,0,0,.59-.55,1.37,1.37,0,0,0,.23-.82Z"></path><path d="M282.21,29.55h2.43l-2.55,2.57h-1.5Zm-1.62,13.17v-9.3h2.06v9.3Z"></path><path d="M286.38,39.73a1.56,1.56,0,0,0,.68,1.26,2.7,2.7,0,0,0,1.42.36,5.4,5.4,0,0,0,.66,0,2.91,2.91,0,0,0,.69-.17,1.3,1.3,0,0,0,.53-.37.89.89,0,0,0,.19-.64.91.91,0,0,0-.28-.65,2,2,0,0,0-.7-.4,6.55,6.55,0,0,0-1-.27c-.36-.07-.73-.14-1.1-.23a10.09,10.09,0,0,1-1.11-.31,3.4,3.4,0,0,1-.95-.48,2.2,2.2,0,0,1-.67-.78,2.48,2.48,0,0,1-.26-1.18,2.14,2.14,0,0,1,.37-1.27,2.89,2.89,0,0,1,.94-.83,4,4,0,0,1,1.26-.44,7.76,7.76,0,0,1,1.32-.13,5.67,5.67,0,0,1,1.38.16,3.69,3.69,0,0,1,1.19.49,3.11,3.11,0,0,1,.88.89A3.17,3.17,0,0,1,292.3,36h-2.14a1.25,1.25,0,0,0-.68-1,2.76,2.76,0,0,0-1.21-.26c-.15,0-.32,0-.52,0a2.45,2.45,0,0,0-.55.13,1.25,1.25,0,0,0-.44.29.7.7,0,0,0-.18.5.77.77,0,0,0,.26.61,2.1,2.1,0,0,0,.68.39,6.6,6.6,0,0,0,1,.26l1.12.23a10.57,10.57,0,0,1,1.1.31,3.6,3.6,0,0,1,1,.48,2.33,2.33,0,0,1,.68.78,2.25,2.25,0,0,1,.27,1.15,2.5,2.5,0,0,1-.38,1.4,2.94,2.94,0,0,1-1,.94,4.61,4.61,0,0,1-1.34.52,6.73,6.73,0,0,1-1.46.16,6,6,0,0,1-1.63-.2,3.79,3.79,0,0,1-1.3-.6,2.9,2.9,0,0,1-.86-1,3.14,3.14,0,0,1-.33-1.43Z"></path><path d="M137.48,60.72l-.13-1.82h0a3.4,3.4,0,0,1-.63.92,3.58,3.58,0,0,1-.82.63,3.38,3.38,0,0,1-.95.35,4.72,4.72,0,0,1-1.06.12,4.81,4.81,0,0,1-2.07-.43,4.28,4.28,0,0,1-1.47-1.14,5.06,5.06,0,0,1-.89-1.65,6.82,6.82,0,0,1-.29-2,6.7,6.7,0,0,1,.29-2,5,5,0,0,1,.89-1.66,4.31,4.31,0,0,1,1.47-1.15,4.81,4.81,0,0,1,2.07-.43,5.45,5.45,0,0,1,1.48.21,3.69,3.69,0,0,1,2.17,1.67,4,4,0,0,1,.52,1.44h-.95a2.29,2.29,0,0,0-.29-.87,2.94,2.94,0,0,0-.66-.81,3.28,3.28,0,0,0-1-.59,3.37,3.37,0,0,0-1.29-.23,3.54,3.54,0,0,0-1.71.38,3.34,3.34,0,0,0-1.17,1,4.22,4.22,0,0,0-.67,1.4,6,6,0,0,0,0,3.22,4.37,4.37,0,0,0,.67,1.41,3.34,3.34,0,0,0,1.17,1,3.66,3.66,0,0,0,1.71.38,3.86,3.86,0,0,0,1.48-.27,3.08,3.08,0,0,0,1.09-.77,3.12,3.12,0,0,0,.68-1.16,4.36,4.36,0,0,0,.21-1.47h-3.41v-.81h4.25v5.08Z"></path><path d="M140.68,53.5v1.69h0a2.63,2.63,0,0,1,2.73-1.79v.88a2.72,2.72,0,0,0-1.09.16,2.57,2.57,0,0,0-.85.54,2.36,2.36,0,0,0-.55.83,2.67,2.67,0,0,0-.2,1.06v3.85h-.88V53.5Z"></path><path d="M144.37,54.62a2.08,2.08,0,0,1,.61-.76,2.68,2.68,0,0,1,.9-.43,4.17,4.17,0,0,1,1.15-.14,5,5,0,0,1,.95.09,2.25,2.25,0,0,1,.86.34,1.94,1.94,0,0,1,.61.71,2.53,2.53,0,0,1,.24,1.18v3.84a.46.46,0,0,0,.52.53.67.67,0,0,0,.28-.06v.75l-.27,0h-.3a1.32,1.32,0,0,1-.54-.09.75.75,0,0,1-.32-.26,1.11,1.11,0,0,1-.15-.4,3.89,3.89,0,0,1,0-.51h0a6.69,6.69,0,0,1-.48.62,2.36,2.36,0,0,1-.55.46,2.77,2.77,0,0,1-.68.28,4.11,4.11,0,0,1-.92.1,3.64,3.64,0,0,1-.95-.12,2.22,2.22,0,0,1-.77-.38,1.68,1.68,0,0,1-.51-.66,2.1,2.1,0,0,1-.19-.94,1.91,1.91,0,0,1,.33-1.19A2.19,2.19,0,0,1,145,57a5.08,5.08,0,0,1,1.25-.31l1.41-.18.49-.07a.92.92,0,0,0,.35-.14.7.7,0,0,0,.21-.29,1.26,1.26,0,0,0,.08-.48,1.55,1.55,0,0,0-.15-.73,1.2,1.2,0,0,0-.4-.46,1.72,1.72,0,0,0-.61-.23,4.15,4.15,0,0,0-.73-.06,2.19,2.19,0,0,0-1.37.4,1.54,1.54,0,0,0-.56,1.28h-.89A3,3,0,0,1,144.37,54.62Zm4.41,2.15a.48.48,0,0,1-.32.23,2.92,2.92,0,0,1-.42.09c-.37.07-.76.13-1.16.18a6.62,6.62,0,0,0-1.08.23,2.1,2.1,0,0,0-.81.44,1.06,1.06,0,0,0-.31.82,1.32,1.32,0,0,0,.13.6,1.56,1.56,0,0,0,.88.73,1.72,1.72,0,0,0,.6.1,3.12,3.12,0,0,0,1-.15,2.72,2.72,0,0,0,.8-.45,2.3,2.3,0,0,0,.55-.72,2.21,2.21,0,0,0,.2-.95V56.77Zm-2.63-4.28,1.47-2h1.09l-1.85,2Z"></path><path d="M154.16,53.5v.74h-1.47v4.87a1.56,1.56,0,0,0,.12.68c.08.16.28.25.59.27a6.34,6.34,0,0,0,.76,0v.74l-.39,0h-.39a1.77,1.77,0,0,1-1.24-.34,1.75,1.75,0,0,1-.33-1.27V54.24h-1.26V53.5h1.26V51.33h.88V53.5Z"></path><path d="M156.16,50.72v1.42h-.89V50.72Zm0,2.78v7.22h-.89V53.5Z"></path><path d="M162,54.9a1.4,1.4,0,0,0-.41-.49,1.76,1.76,0,0,0-.6-.29,2.71,2.71,0,0,0-.71-.09,3.05,3.05,0,0,0-.6.06,1.74,1.74,0,0,0-.55.21,1.27,1.27,0,0,0-.41.39,1.06,1.06,0,0,0-.15.58.8.8,0,0,0,.15.5,1.2,1.2,0,0,0,.37.34,2,2,0,0,0,.49.24,3.71,3.71,0,0,0,.49.14l1.17.27a3.33,3.33,0,0,1,.75.2,2.4,2.4,0,0,1,.66.39,1.91,1.91,0,0,1,.47.58,1.81,1.81,0,0,1,.18.83,1.86,1.86,0,0,1-.26,1,2.17,2.17,0,0,1-.68.67,2.71,2.71,0,0,1-.93.37,4.59,4.59,0,0,1-1,.12,3.26,3.26,0,0,1-2.06-.61,2.52,2.52,0,0,1-.9-1.93h.88a1.73,1.73,0,0,0,.65,1.35,2.31,2.31,0,0,0,1.48.46,3.09,3.09,0,0,0,.66-.07,2.35,2.35,0,0,0,.64-.24,1.52,1.52,0,0,0,.48-.43,1,1,0,0,0,.19-.63,1,1,0,0,0-.13-.54,1.16,1.16,0,0,0-.36-.37,2.4,2.4,0,0,0-.51-.24c-.19-.07-.39-.12-.58-.17l-1.14-.25a6.66,6.66,0,0,1-.79-.26,2.61,2.61,0,0,1-.64-.36,1.61,1.61,0,0,1-.43-.54,2,2,0,0,1,.09-1.71,2,2,0,0,1,.64-.63,2.75,2.75,0,0,1,.88-.35,3.91,3.91,0,0,1,.95-.11,3.31,3.31,0,0,1,1,.14,2.3,2.3,0,0,1,.82.43,2.16,2.16,0,0,1,.57.73,2.64,2.64,0,0,1,.24,1h-.88A1.73,1.73,0,0,0,162,54.9Z"></path><path d="M167.68,58.33a2.6,2.6,0,0,0,.43.92,2.27,2.27,0,0,0,.74.67,2.06,2.06,0,0,0,1.08.27,2.14,2.14,0,0,0,1.51-.51,2.63,2.63,0,0,0,.75-1.34h.89a3.57,3.57,0,0,1-1,1.91,3.11,3.11,0,0,1-2.12.67,3.37,3.37,0,0,1-1.48-.3,2.69,2.69,0,0,1-1-.83,3.72,3.72,0,0,1-.58-1.22,5.78,5.78,0,0,1-.19-1.46,5.49,5.49,0,0,1,.19-1.4,3.88,3.88,0,0,1,.58-1.23,3,3,0,0,1,1-.86,3.11,3.11,0,0,1,1.48-.33,2.9,2.9,0,0,1,1.48.35,3,3,0,0,1,1,.91,3.75,3.75,0,0,1,.55,1.31,5.31,5.31,0,0,1,.14,1.49h-5.55A3.83,3.83,0,0,0,167.68,58.33Zm4.37-2.69a2.63,2.63,0,0,0-.46-.82,2.08,2.08,0,0,0-.71-.57,2,2,0,0,0-.95-.22,2,2,0,0,0-1,.22,2.08,2.08,0,0,0-.71.57,2.6,2.6,0,0,0-.47.83,3.56,3.56,0,0,0-.23,1h4.67A3.46,3.46,0,0,0,172.05,55.64Z"></path><path d="M175.21,53.5v1.24h0a2.09,2.09,0,0,1,.9-1.05,2.6,2.6,0,0,1,1.41-.4,3.62,3.62,0,0,1,1.27.19,1.94,1.94,0,0,1,1.25,1.43,5.14,5.14,0,0,1,.13,1.16v4.65h-.89V56.21a3.93,3.93,0,0,0-.08-.86,1.87,1.87,0,0,0-.29-.69,1.37,1.37,0,0,0-.57-.46,2.11,2.11,0,0,0-.89-.17,2.16,2.16,0,0,0-.94.19,1.92,1.92,0,0,0-.7.52,2.16,2.16,0,0,0-.45.78,3.11,3.11,0,0,0-.18,1v4.21h-.88V53.5Z"></path><path d="M188.65,54.49a1.89,1.89,0,0,0-1.37-.46,2.16,2.16,0,0,0-1.1.27,2.31,2.31,0,0,0-.79.7,3.09,3.09,0,0,0-.48,1,4.07,4.07,0,0,0,0,2.26,3.31,3.31,0,0,0,.48,1,2.31,2.31,0,0,0,.79.7,2.16,2.16,0,0,0,1.1.27,2,2,0,0,0,.77-.15,2.23,2.23,0,0,0,.65-.43,2.38,2.38,0,0,0,.46-.65,2.48,2.48,0,0,0,.22-.83h.89a3.39,3.39,0,0,1-1,2,2.84,2.84,0,0,1-2,.74,3.37,3.37,0,0,1-1.46-.3,3.12,3.12,0,0,1-1.07-.82,3.64,3.64,0,0,1-.66-1.21,5.09,5.09,0,0,1,0-3,3.64,3.64,0,0,1,.66-1.21,3.28,3.28,0,0,1,1.07-.83,3.37,3.37,0,0,1,1.46-.3,3.15,3.15,0,0,1,2,.61,2.6,2.6,0,0,1,1,1.86h-.88A2.4,2.4,0,0,0,188.65,54.49Z"></path><path d="M196,53.59a3.18,3.18,0,0,1,1.07.83,3.64,3.64,0,0,1,.66,1.21,4.88,4.88,0,0,1,0,3,3.64,3.64,0,0,1-.66,1.21,3,3,0,0,1-1.07.82,3.7,3.7,0,0,1-2.92,0A3.12,3.12,0,0,1,192,59.8a3.64,3.64,0,0,1-.66-1.21,4.88,4.88,0,0,1,0-3,3.64,3.64,0,0,1,.66-1.21,3.28,3.28,0,0,1,1.07-.83,3.7,3.7,0,0,1,2.92,0Zm-2.57.71a2.41,2.41,0,0,0-.79.7,2.88,2.88,0,0,0-.47,1,4.07,4.07,0,0,0,0,2.26,3.07,3.07,0,0,0,.47,1,2.41,2.41,0,0,0,.79.7,2.42,2.42,0,0,0,2.22,0,2.41,2.41,0,0,0,.79-.7,3.07,3.07,0,0,0,.47-1,4.07,4.07,0,0,0,0-2.26,2.88,2.88,0,0,0-.47-1,2.41,2.41,0,0,0-.79-.7,2.42,2.42,0,0,0-2.22,0Z"></path><path d="M200.09,53.5v1.22h0a2.68,2.68,0,0,1,.91-1,2.5,2.5,0,0,1,1.45-.38,2.42,2.42,0,0,1,1.3.35,1.7,1.7,0,0,1,.77,1.06,2.2,2.2,0,0,1,1-1.06,2.67,2.67,0,0,1,1.35-.35c1.6,0,2.39.84,2.39,2.53v4.9h-.88V55.86A2.08,2.08,0,0,0,208,54.5a1.62,1.62,0,0,0-1.33-.47,1.83,1.83,0,0,0-.95.22,1.59,1.59,0,0,0-.6.58,2.44,2.44,0,0,0-.32.83,5.15,5.15,0,0,0-.09,1v4.09h-.88v-4.9a2.61,2.61,0,0,0-.08-.69,1.6,1.6,0,0,0-.25-.58,1.12,1.12,0,0,0-.47-.38,1.66,1.66,0,0,0-.71-.14,2.24,2.24,0,0,0-1,.2,1.86,1.86,0,0,0-.68.56,2.48,2.48,0,0,0-.38.84,4,4,0,0,0-.13,1.06v4h-.88V53.5Z"></path><path d="M211.72,53.5v1.37h0a2.34,2.34,0,0,1,1-1.17,3.06,3.06,0,0,1,1.57-.41,3.25,3.25,0,0,1,1.44.3,3.05,3.05,0,0,1,1,.84,3.68,3.68,0,0,1,.61,1.22,5.7,5.7,0,0,1,0,2.92,3.78,3.78,0,0,1-.61,1.22,2.91,2.91,0,0,1-1,.83,3.25,3.25,0,0,1-1.44.3,3.47,3.47,0,0,1-.78-.1,2.74,2.74,0,0,1-.73-.3,2.48,2.48,0,0,1-.59-.48,2,2,0,0,1-.4-.69h0v4h-.88V53.5Zm4.84,2.5a3.15,3.15,0,0,0-.42-1,2.28,2.28,0,0,0-.74-.71,2.06,2.06,0,0,0-1.08-.27,2.58,2.58,0,0,0-1.21.25,2.16,2.16,0,0,0-.79.67,2.78,2.78,0,0,0-.41,1,5.69,5.69,0,0,0-.12,1.18,4.67,4.67,0,0,0,.13,1.11,3,3,0,0,0,.44,1,2.43,2.43,0,0,0,.78.71,2.39,2.39,0,0,0,1.18.27,2.06,2.06,0,0,0,1.08-.27,2.39,2.39,0,0,0,.74-.71,3.15,3.15,0,0,0,.42-1,5.25,5.25,0,0,0,.13-1.11A5.18,5.18,0,0,0,216.56,56Z"></path><path d="M219.74,53.5v1.69h0a2.84,2.84,0,0,1,1.05-1.36,2.75,2.75,0,0,1,1.68-.43v.88a2.75,2.75,0,0,0-1.09.16,2.53,2.53,0,0,0-.84.54,2.39,2.39,0,0,0-.56.83,2.85,2.85,0,0,0-.19,1.06v3.85h-.89V53.5Z"></path><path d="M223.43,54.62a2.08,2.08,0,0,1,.61-.76,2.51,2.51,0,0,1,.9-.43,4.12,4.12,0,0,1,1.15-.14,5.17,5.17,0,0,1,.95.09,2.2,2.2,0,0,1,.85.34,1.87,1.87,0,0,1,.62.71,2.53,2.53,0,0,1,.24,1.18v3.84a.46.46,0,0,0,.52.53.67.67,0,0,0,.28-.06v.75l-.28,0H229a1.38,1.38,0,0,1-.54-.09.72.72,0,0,1-.31-.26A.84.84,0,0,1,228,60a3.89,3.89,0,0,1,0-.51h0a5.36,5.36,0,0,1-.49.62,2.13,2.13,0,0,1-.54.46,2.69,2.69,0,0,1-.69.28,4,4,0,0,1-.91.1,3.58,3.58,0,0,1-.95-.12,2.22,2.22,0,0,1-.77-.38,1.8,1.8,0,0,1-.52-.66,2.25,2.25,0,0,1-.19-.94,1.91,1.91,0,0,1,.34-1.19,2.13,2.13,0,0,1,.89-.65,5,5,0,0,1,1.24-.31l1.41-.18a4.79,4.79,0,0,0,.49-.07.86.86,0,0,0,.35-.14.72.72,0,0,0,.22-.29,1.26,1.26,0,0,0,.08-.48,1.55,1.55,0,0,0-.15-.73,1.14,1.14,0,0,0-.41-.46,1.6,1.6,0,0,0-.6-.23A4.23,4.23,0,0,0,226,54a2.24,2.24,0,0,0-1.38.4,1.57,1.57,0,0,0-.56,1.28h-.88A3,3,0,0,1,223.43,54.62Zm4.41,2.15a.53.53,0,0,1-.32.23,2.92,2.92,0,0,1-.42.09c-.38.07-.76.13-1.16.18a6.2,6.2,0,0,0-1.08.23,2.1,2.1,0,0,0-.81.44,1.06,1.06,0,0,0-.31.82,1.32,1.32,0,0,0,.13.6,1.39,1.39,0,0,0,.36.44,1.36,1.36,0,0,0,.51.29,1.81,1.81,0,0,0,.61.1,3.11,3.11,0,0,0,1-.15,2.65,2.65,0,0,0,.81-.45,2.13,2.13,0,0,0,.54-.72,2.08,2.08,0,0,0,.21-.95V56.77Z"></path><path d="M234.67,54.9a1.4,1.4,0,0,0-.41-.49,1.76,1.76,0,0,0-.6-.29A2.71,2.71,0,0,0,233,54a3.05,3.05,0,0,0-.6.06,1.74,1.74,0,0,0-.55.21,1.27,1.27,0,0,0-.41.39,1.06,1.06,0,0,0-.15.58.8.8,0,0,0,.15.5,1.2,1.2,0,0,0,.37.34,2,2,0,0,0,.49.24,4.19,4.19,0,0,0,.49.14l1.17.27a3.19,3.19,0,0,1,.75.2,2.4,2.4,0,0,1,.66.39,1.91,1.91,0,0,1,.47.58,1.81,1.81,0,0,1,.18.83,1.86,1.86,0,0,1-.26,1,2.17,2.17,0,0,1-.68.67,2.71,2.71,0,0,1-.93.37,4.59,4.59,0,0,1-1,.12,3.28,3.28,0,0,1-2.06-.61,2.52,2.52,0,0,1-.9-1.93H231a1.73,1.73,0,0,0,.65,1.35,2.33,2.33,0,0,0,1.48.46,3.09,3.09,0,0,0,.66-.07,2.35,2.35,0,0,0,.64-.24,1.52,1.52,0,0,0,.48-.43,1,1,0,0,0,.19-.63,1,1,0,0,0-.13-.54,1.16,1.16,0,0,0-.36-.37,2.4,2.4,0,0,0-.51-.24c-.19-.07-.39-.12-.58-.17l-1.14-.25a6.66,6.66,0,0,1-.79-.26,2.61,2.61,0,0,1-.64-.36,1.61,1.61,0,0,1-.43-.54,2,2,0,0,1,.09-1.71,2,2,0,0,1,.64-.63,2.75,2.75,0,0,1,.88-.35,3.91,3.91,0,0,1,.95-.11,3.31,3.31,0,0,1,1,.14,2.43,2.43,0,0,1,.83.43,2.26,2.26,0,0,1,.56.73,2.64,2.64,0,0,1,.24,1h-.88A1.73,1.73,0,0,0,234.67,54.9Z"></path><path d="M244,54.9a1.4,1.4,0,0,0-.41-.49,1.68,1.68,0,0,0-.6-.29,2.71,2.71,0,0,0-.71-.09,3.13,3.13,0,0,0-.6.06,1.74,1.74,0,0,0-.55.21,1.15,1.15,0,0,0-.4.39,1,1,0,0,0-.16.58.8.8,0,0,0,.15.5,1.2,1.2,0,0,0,.37.34,2,2,0,0,0,.49.24,4.19,4.19,0,0,0,.49.14l1.18.27a3.47,3.47,0,0,1,.75.2,2.5,2.5,0,0,1,.65.39,1.91,1.91,0,0,1,.47.58,1.81,1.81,0,0,1,.18.83,1.77,1.77,0,0,1-.26,1,2.17,2.17,0,0,1-.68.67,2.71,2.71,0,0,1-.93.37,4.57,4.57,0,0,1-1,.12,3.29,3.29,0,0,1-2.07-.61,2.52,2.52,0,0,1-.9-1.93h.88a1.73,1.73,0,0,0,.65,1.35,2.33,2.33,0,0,0,1.48.46,3.09,3.09,0,0,0,.66-.07,2.35,2.35,0,0,0,.64-.24,1.33,1.33,0,0,0,.48-.43,1,1,0,0,0,.19-.63,1,1,0,0,0-.13-.54,1.16,1.16,0,0,0-.36-.37,2.4,2.4,0,0,0-.51-.24,5.54,5.54,0,0,0-.58-.17l-1.13-.25a6.84,6.84,0,0,1-.8-.26,2.81,2.81,0,0,1-.64-.36,1.74,1.74,0,0,1-.43-.54,2,2,0,0,1,.09-1.71,2,2,0,0,1,.64-.63,2.84,2.84,0,0,1,.88-.35,3.93,3.93,0,0,1,1-.11,3.29,3.29,0,0,1,1,.14,2.43,2.43,0,0,1,.83.43,2.13,2.13,0,0,1,.56.73,2.64,2.64,0,0,1,.24,1h-.88A1.73,1.73,0,0,0,244,54.9Z"></path><path d="M251.58,60.72v-1.3h0a2.48,2.48,0,0,1-1,1.11,2.87,2.87,0,0,1-1.48.39,3.33,3.33,0,0,1-1.17-.19,2,2,0,0,1-.78-.54,2.15,2.15,0,0,1-.44-.85,4.07,4.07,0,0,1-.14-1.15V53.5h.88v4.7a2.37,2.37,0,0,0,.45,1.48,1.85,1.85,0,0,0,1.48.51,1.81,1.81,0,0,0,1-.25,2,2,0,0,0,.67-.65,3,3,0,0,0,.4-.93,4.81,4.81,0,0,0,.12-1.07V53.5h.88v7.22Z"></path><path d="M254.84,53.5v1.37h0a2.39,2.39,0,0,1,1-1.17,3.07,3.07,0,0,1,1.58-.41,3.17,3.17,0,0,1,1.43.3,3,3,0,0,1,1,.84,3.48,3.48,0,0,1,.6,1.22,5.43,5.43,0,0,1,0,2.92,3.57,3.57,0,0,1-.6,1.22,2.85,2.85,0,0,1-1,.83,3.17,3.17,0,0,1-1.43.3,3.64,3.64,0,0,1-.79-.1,2.55,2.55,0,0,1-.72-.3,2.35,2.35,0,0,1-.6-.48,2.15,2.15,0,0,1-.4-.69h0v4H254V53.5Zm4.84,2.5a3.15,3.15,0,0,0-.42-1,2.35,2.35,0,0,0-.73-.71,2.06,2.06,0,0,0-1.08-.27,2.63,2.63,0,0,0-1.22.25,2,2,0,0,0-.78.67,2.63,2.63,0,0,0-.42,1,5.69,5.69,0,0,0-.12,1.18,4.69,4.69,0,0,0,.14,1.11,3,3,0,0,0,.43,1,2.27,2.27,0,0,0,2,1,2.06,2.06,0,0,0,1.08-.27,2.47,2.47,0,0,0,.73-.71,3.15,3.15,0,0,0,.42-1,4.67,4.67,0,0,0,.13-1.11A4.61,4.61,0,0,0,259.68,56Z"></path><path d="M262.71,58.33a2.6,2.6,0,0,0,.43.92,2.27,2.27,0,0,0,.74.67,2.06,2.06,0,0,0,1.08.27,2.14,2.14,0,0,0,1.51-.51,2.65,2.65,0,0,0,.76-1.34h.88a3.57,3.57,0,0,1-1,1.91,3.11,3.11,0,0,1-2.12.67,3.37,3.37,0,0,1-1.48-.3,2.66,2.66,0,0,1-1-.83,3.55,3.55,0,0,1-.59-1.22,5.78,5.78,0,0,1-.19-1.46,5.49,5.49,0,0,1,.19-1.4,3.69,3.69,0,0,1,.59-1.23,2.93,2.93,0,0,1,1-.86,3.11,3.11,0,0,1,1.48-.33,2.87,2.87,0,0,1,1.48.35,2.92,2.92,0,0,1,1,.91,4,4,0,0,1,.56,1.31,6.18,6.18,0,0,1,.14,1.49h-5.56A3.83,3.83,0,0,0,262.71,58.33Zm4.37-2.69a2.63,2.63,0,0,0-.46-.82,2.08,2.08,0,0,0-.71-.57,2,2,0,0,0-1-.22,2,2,0,0,0-1,.22,2.08,2.08,0,0,0-.71.57,2.8,2.8,0,0,0-.47.83,3.56,3.56,0,0,0-.23,1h4.67A3.13,3.13,0,0,0,267.08,55.64Z"></path><path d="M270.18,53.5v1.69h0a2.63,2.63,0,0,1,2.73-1.79v.88a2.72,2.72,0,0,0-1.09.16A2.57,2.57,0,0,0,271,55a2.36,2.36,0,0,0-.55.83,2.86,2.86,0,0,0-.2,1.06v3.85h-.88V53.5Z"></path><path d="M274.72,50.72v1.42h-.88V50.72Zm0,2.78v7.22h-.88V53.5Z"></path><path d="M280.93,53.59a3.38,3.38,0,0,1,1.07.83,3.64,3.64,0,0,1,.66,1.21,5.09,5.09,0,0,1,0,3A3.64,3.64,0,0,1,282,59.8a3.22,3.22,0,0,1-1.07.82,3.45,3.45,0,0,1-1.47.3,3.4,3.4,0,0,1-1.46-.3,3.22,3.22,0,0,1-1.07-.82,3.64,3.64,0,0,1-.66-1.21,5.09,5.09,0,0,1,0-3,3.64,3.64,0,0,1,.66-1.21,3.14,3.14,0,0,1,2.53-1.13A3.45,3.45,0,0,1,280.93,53.59Zm-2.57.71a2.31,2.31,0,0,0-.79.7,3.09,3.09,0,0,0-.48,1,4.07,4.07,0,0,0,0,2.26,3.31,3.31,0,0,0,.48,1,2.31,2.31,0,0,0,.79.7,2.19,2.19,0,0,0,1.1.27,2.23,2.23,0,0,0,1.11-.27,2.31,2.31,0,0,0,.79-.7,3.31,3.31,0,0,0,.48-1,4.07,4.07,0,0,0,0-2.26,3.09,3.09,0,0,0-.48-1,2.31,2.31,0,0,0-.79-.7,2.23,2.23,0,0,0-1.11-.27A2.19,2.19,0,0,0,278.36,54.3Z"></path><path d="M285,53.5v1.69h0a2.84,2.84,0,0,1,1.05-1.36,2.75,2.75,0,0,1,1.68-.43v.88a2.75,2.75,0,0,0-1.09.16,2.68,2.68,0,0,0-.85.54,2.51,2.51,0,0,0-.55.83,2.85,2.85,0,0,0-.19,1.06v3.85h-.89V53.5Z"></path><path d="M289.07,58.33a2.6,2.6,0,0,0,.43.92,2.38,2.38,0,0,0,.74.67,2.06,2.06,0,0,0,1.08.27,2.12,2.12,0,0,0,1.51-.51,2.58,2.58,0,0,0,.76-1.34h.88a3.57,3.57,0,0,1-1,1.91,3.11,3.11,0,0,1-2.12.67,3.4,3.4,0,0,1-1.48-.3,2.74,2.74,0,0,1-1-.83,3.53,3.53,0,0,1-.58-1.22,5.36,5.36,0,0,1-.19-1.46,5.08,5.08,0,0,1,.19-1.4,3.67,3.67,0,0,1,.58-1.23,3,3,0,0,1,1-.86,3.14,3.14,0,0,1,1.48-.33,2.87,2.87,0,0,1,1.48.35,2.92,2.92,0,0,1,1,.91,3.77,3.77,0,0,1,.56,1.31,5.71,5.71,0,0,1,.14,1.49h-5.56A3.83,3.83,0,0,0,289.07,58.33Zm4.37-2.69a2.83,2.83,0,0,0-.45-.82,2.22,2.22,0,0,0-.72-.57,2,2,0,0,0-.95-.22,2,2,0,0,0-1,.22,2.18,2.18,0,0,0-.71.57,2.8,2.8,0,0,0-.47.83,4,4,0,0,0-.23,1h4.68A3.14,3.14,0,0,0,293.44,55.64Z"></path><path d="M299.91,54.9a1.42,1.42,0,0,0-.42-.49,1.71,1.71,0,0,0-.59-.29,2.78,2.78,0,0,0-.72-.09,3,3,0,0,0-.59.06,1.66,1.66,0,0,0-.55.21,1.18,1.18,0,0,0-.41.39,1.06,1.06,0,0,0-.15.58.8.8,0,0,0,.14.5,1.2,1.2,0,0,0,.37.34,2.23,2.23,0,0,0,.49.24,4.19,4.19,0,0,0,.49.14l1.18.27a3.47,3.47,0,0,1,.75.2,2.4,2.4,0,0,1,.66.39,2.06,2.06,0,0,1,.47.58,1.81,1.81,0,0,1,.18.83,1.78,1.78,0,0,1-.27,1,2.07,2.07,0,0,1-.68.67,2.56,2.56,0,0,1-.93.37,4.44,4.44,0,0,1-1,.12,3.29,3.29,0,0,1-2.07-.61,2.59,2.59,0,0,1-.9-1.93h.88a1.76,1.76,0,0,0,.65,1.35,2.33,2.33,0,0,0,1.48.46,3.11,3.11,0,0,0,.67-.07,2.17,2.17,0,0,0,.63-.24,1.45,1.45,0,0,0,.49-.43,1.07,1.07,0,0,0,.19-.63,1,1,0,0,0-.14-.54,1.24,1.24,0,0,0-.35-.37,2.27,2.27,0,0,0-.52-.24,5.54,5.54,0,0,0-.58-.17l-1.13-.25a6.84,6.84,0,0,1-.8-.26,3,3,0,0,1-.64-.36,1.58,1.58,0,0,1-.42-.54,1.63,1.63,0,0,1-.16-.77,1.75,1.75,0,0,1,.25-.94,1.84,1.84,0,0,1,.64-.63,2.79,2.79,0,0,1,.87-.35,3.93,3.93,0,0,1,1-.11,3.29,3.29,0,0,1,1,.14,2.34,2.34,0,0,1,.83.43,2.16,2.16,0,0,1,.57.73,2.64,2.64,0,0,1,.24,1h-.89A1.73,1.73,0,0,0,299.91,54.9Z"></path><path d="M305.34,54.62a2.18,2.18,0,0,1,.61-.76,2.64,2.64,0,0,1,.91-.43,4,4,0,0,1,1.14-.14,5.2,5.2,0,0,1,1,.09,2.27,2.27,0,0,1,.85.34,2,2,0,0,1,.62.71,2.66,2.66,0,0,1,.23,1.18v3.84a.47.47,0,0,0,.52.53.64.64,0,0,0,.28-.06v.75l-.27,0h-.3a1.32,1.32,0,0,1-.54-.09.75.75,0,0,1-.32-.26,1,1,0,0,1-.14-.4,2.64,2.64,0,0,1,0-.51h0a6.69,6.69,0,0,1-.48.62,2,2,0,0,1-.55.46,2.62,2.62,0,0,1-.68.28,4,4,0,0,1-.92.1,3.56,3.56,0,0,1-.94-.12,2.14,2.14,0,0,1-.77-.38,1.7,1.7,0,0,1-.52-.66,2.1,2.1,0,0,1-.19-.94,1.85,1.85,0,0,1,.34-1.19A2.16,2.16,0,0,1,306,57a5.08,5.08,0,0,1,1.25-.31l1.41-.18c.18,0,.35,0,.49-.07a.92.92,0,0,0,.35-.14.7.7,0,0,0,.21-.29,1.09,1.09,0,0,0,.08-.48,1.69,1.69,0,0,0-.14-.73,1.22,1.22,0,0,0-.41-.46,1.67,1.67,0,0,0-.6-.23,4.35,4.35,0,0,0-.74-.06,2.19,2.19,0,0,0-1.37.4,1.54,1.54,0,0,0-.56,1.28h-.88A3,3,0,0,1,305.34,54.62Zm4.41,2.15a.48.48,0,0,1-.32.23,2.92,2.92,0,0,1-.42.09c-.37.07-.76.13-1.15.18a6.53,6.53,0,0,0-1.09.23,2.05,2.05,0,0,0-.8.44,1.06,1.06,0,0,0-.32.82,1.47,1.47,0,0,0,.13.6,1.56,1.56,0,0,0,.88.73,1.8,1.8,0,0,0,.6.1,3.12,3.12,0,0,0,1-.15,2.6,2.6,0,0,0,.8-.45,2.3,2.3,0,0,0,.55-.72,2.21,2.21,0,0,0,.2-.95V56.77Z"></path><path d="M316.28,59.41a2.61,2.61,0,0,0,1.7.78V56.05c-.39-.09-.77-.19-1.13-.31a2.75,2.75,0,0,1-.93-.49,2.26,2.26,0,0,1-.64-.79,2.75,2.75,0,0,1,.62-3.21,2.84,2.84,0,0,1,.94-.55,3.59,3.59,0,0,1,1.14-.19V49.42h.55v1.09a3.14,3.14,0,0,1,1.15.22,2.89,2.89,0,0,1,.95.62,2.72,2.72,0,0,1,.65,1,3.3,3.3,0,0,1,.22,1.24h-.89a2.39,2.39,0,0,0-.59-1.67,2,2,0,0,0-1.49-.62v4a12,12,0,0,1,1.18.31,3.85,3.85,0,0,1,1,.5,2.58,2.58,0,0,1,.73.81,2.37,2.37,0,0,1,.28,1.22,2.6,2.6,0,0,1-.27,1.21,2.71,2.71,0,0,1-.73.88,3.08,3.08,0,0,1-1,.52,3.94,3.94,0,0,1-1.19.18v1.19H318V60.9a3.6,3.6,0,0,1-2.39-1,3.71,3.71,0,0,1-.8-2.41h.88A2.72,2.72,0,0,0,316.28,59.41Zm.91-8a1.79,1.79,0,0,0-.66.37,1.72,1.72,0,0,0-.45.65,2.64,2.64,0,0,0-.16.94,1.55,1.55,0,0,0,.18.8,1.48,1.48,0,0,0,.46.5,2,2,0,0,0,.66.31c.25.08.5.15.76.21v-3.9A2.56,2.56,0,0,0,317.19,51.38Zm2.2,8.7a2,2,0,0,0,.75-.37,2,2,0,0,0,.54-.63,2.07,2.07,0,0,0,.2-.94,1.5,1.5,0,0,0-.22-.84,1.92,1.92,0,0,0-.55-.55,3.82,3.82,0,0,0-.76-.36c-.28-.09-.55-.17-.82-.23v4A3.43,3.43,0,0,0,319.39,60.08Z"></path><path d="M324,52.75a2.19,2.19,0,0,0,.82-.23,1.53,1.53,0,0,0,.57-.56,2.82,2.82,0,0,0,.33-1h.71v9.8h-.88V53.44H323v-.63C323.36,52.8,323.71,52.78,324,52.75Z"></path><path d="M330,58.84a2,2,0,0,0,.51.73,2.2,2.2,0,0,0,.75.46,2.85,2.85,0,0,0,.94.16,2.3,2.3,0,0,0,1.79-.81,2.4,2.4,0,0,0,.49-.85,2.88,2.88,0,0,0,.17-1,2.51,2.51,0,0,0-.19-1,2.45,2.45,0,0,0-.52-.81,2.31,2.31,0,0,0-.79-.54,2.53,2.53,0,0,0-1-.19,2.64,2.64,0,0,0-1.24.3,2.5,2.5,0,0,0-.94.86h-.76l1-5.08H335v.81h-4.29l-.63,3.25,0,0a2.48,2.48,0,0,1,.93-.67,2.85,2.85,0,0,1,1.14-.24,3.52,3.52,0,0,1,1.37.26,2.86,2.86,0,0,1,1,.7,2.93,2.93,0,0,1,.66,1.07,3.74,3.74,0,0,1,.23,1.36,3.43,3.43,0,0,1-.26,1.33A3.36,3.36,0,0,1,334.5,60a3.3,3.3,0,0,1-1.09.68,3.41,3.41,0,0,1-1.32.25,3.72,3.72,0,0,1-1.27-.21,2.92,2.92,0,0,1-1-.58,2.85,2.85,0,0,1-.68-1,3.15,3.15,0,0,1-.27-1.26h.88A2.3,2.3,0,0,0,330,58.84Z"></path><path d="M337.12,59.24h1.18v1.48h-1.18Z"></path><path d="M344.9,51.31a3.22,3.22,0,0,1,1,1.19,5,5,0,0,1,.5,1.63,11.67,11.67,0,0,1,.14,1.75,11.81,11.81,0,0,1-.14,1.76,4.88,4.88,0,0,1-.5,1.62,3.17,3.17,0,0,1-1,1.2,3.5,3.5,0,0,1-3.47,0,3.2,3.2,0,0,1-1.05-1.2,5.39,5.39,0,0,1-.5-1.62,11.91,11.91,0,0,1,0-3.51,5.55,5.55,0,0,1,.5-1.63,3.25,3.25,0,0,1,1.05-1.19,3.44,3.44,0,0,1,3.47,0Zm-3.08.7a2.69,2.69,0,0,0-.76,1.08,5.23,5.23,0,0,0-.35,1.4c0,.51-.08,1-.08,1.39s0,.89.08,1.39a5.23,5.23,0,0,0,.35,1.4,2.72,2.72,0,0,0,.76,1.09,2,2,0,0,0,1.34.43,2.06,2.06,0,0,0,1.35-.43,2.82,2.82,0,0,0,.76-1.09,5.22,5.22,0,0,0,.34-1.4,11.68,11.68,0,0,0,.09-1.39,11.94,11.94,0,0,0-.09-1.39,5.22,5.22,0,0,0-.34-1.4,2.79,2.79,0,0,0-.76-1.08,2,2,0,0,0-1.35-.43A2,2,0,0,0,341.82,52Z"></path><path d="M352.84,51.31a3.22,3.22,0,0,1,1,1.19,5.26,5.26,0,0,1,.5,1.63,11.67,11.67,0,0,1,.14,1.75,11.81,11.81,0,0,1-.14,1.76,5.12,5.12,0,0,1-.5,1.62,3.17,3.17,0,0,1-1,1.2,3,3,0,0,1-1.74.46,3.08,3.08,0,0,1-1.74-.46,3.26,3.26,0,0,1-1-1.2,4.88,4.88,0,0,1-.5-1.62,11.07,11.07,0,0,1,0-3.51,5,5,0,0,1,.5-1.63,3.31,3.31,0,0,1,1-1.19,2.93,2.93,0,0,1,1.74-.47A2.89,2.89,0,0,1,352.84,51.31Zm-3.08.7a2.81,2.81,0,0,0-.77,1.08,5.63,5.63,0,0,0-.34,1.4,11.79,11.79,0,0,0-.08,1.39,11.56,11.56,0,0,0,.08,1.39,5.63,5.63,0,0,0,.34,1.4,2.85,2.85,0,0,0,.77,1.09,2.3,2.3,0,0,0,2.68,0,2.85,2.85,0,0,0,.77-1.09,5.63,5.63,0,0,0,.34-1.4,11.56,11.56,0,0,0,.08-1.39,11.79,11.79,0,0,0-.08-1.39,5.63,5.63,0,0,0-.34-1.4,2.81,2.81,0,0,0-.77-1.08,2.3,2.3,0,0,0-2.68,0Z"></path><path d="M360.78,51.31a3.31,3.31,0,0,1,1,1.19,5.55,5.55,0,0,1,.5,1.63,11.64,11.64,0,0,1,.13,1.75,11.77,11.77,0,0,1-.13,1.76,5.39,5.39,0,0,1-.5,1.62,3.26,3.26,0,0,1-1,1.2,3,3,0,0,1-1.74.46,3.08,3.08,0,0,1-1.74-.46,3.17,3.17,0,0,1-1-1.2,4.88,4.88,0,0,1-.5-1.62,11.07,11.07,0,0,1,0-3.51,5,5,0,0,1,.5-1.63,3.22,3.22,0,0,1,1-1.19,2.93,2.93,0,0,1,1.74-.47A2.89,2.89,0,0,1,360.78,51.31Zm-3.09.7a2.79,2.79,0,0,0-.76,1.08,5.22,5.22,0,0,0-.34,1.4,11.94,11.94,0,0,0-.09,1.39,11.68,11.68,0,0,0,.09,1.39,5.22,5.22,0,0,0,.34,1.4,2.82,2.82,0,0,0,.76,1.09,2.06,2.06,0,0,0,1.35.43,2,2,0,0,0,1.34-.43,2.72,2.72,0,0,0,.76-1.09,5.23,5.23,0,0,0,.35-1.4c.05-.5.08-1,.08-1.39s0-.88-.08-1.39a5.23,5.23,0,0,0-.35-1.4,2.69,2.69,0,0,0-.76-1.08,2,2,0,0,0-1.34-.43A2,2,0,0,0,357.69,52Z"></path><path class="cls-1" d="M67,33.85l3.64-1.32,0-.08A1.93,1.93,0,1,0,67,33.78Z"></path><path class="cls-1" d="M73.47,40.27l-3.63,1.32h0a1.93,1.93,0,0,0,3.63-1.33Z"></path><path class="cls-1" d="M109.27,53.52c-.12-1.88-.3-3.67-.34-5.48,0-.87.28-1.79.34-2.69,0-.54-.22-.89-.89-.86a1.12,1.12,0,0,1-.91-.39,6.66,6.66,0,0,0-4.19-2.46,1.19,1.19,0,0,1-1-.9c-1.15-3.92-2.32-7.83-3.57-11.7a1.63,1.63,0,0,0-1.17-1c-2.08-.29-4.2-.44-6.31-.62-2.36-.21-4.71-.49-7.09-.55q-5.34-.15-10.71,0c-3.27.08-6.56.32-9.85.56-1.62.12-3.24.36-4.87.57a1.33,1.33,0,0,0-1.29,1.31c-1,6.66-2,13.32-3.09,20a1.36,1.36,0,0,1-.66,1.17c-.33.21-.27,1.26-.26,1.91,0,.35.27.65.49,1.12-.67,0-1.06.06-1.51.1-.19,1.21-.38,2.44-.6,3.8h5.09A8.42,8.42,0,0,1,60,51.72a8.24,8.24,0,0,1,6.59-2,6.19,6.19,0,0,1,5.16,7.6H90.48a9.24,9.24,0,0,1,3.88-6.13,8,8,0,0,1,5.74-1.47c2.89.36,5.72,2.19,5.48,7.63h4.26c.19-1.22.38-2.45.59-3.75Zm-10-12.45c-1.18,0-2.37,0-3.55,0l3.89-4.13c.26.92.5,1.83.74,2.75C100.65,40.8,100.43,41.06,99.28,41.07Zm-5.89-.63L99,34.55c.07.26.14.53.22.79L93.84,41A.64.64,0,0,1,93.39,40.44Zm1.4-9.1a1.39,1.39,0,0,1,.55-.82,1.91,1.91,0,0,1,2.83,1c.13.53.24,1.06.38,1.57.07.26.14.52.22.77l-5.25,5.55c.21-1.2.37-2.41.56-3.62C94.32,34.27,94.52,32.81,94.79,31.34Zm-18.46.45a.84.84,0,0,1-1,1.32l-3.38,3.37,4.71.42a.84.84,0,0,1,.88-.63.86.86,0,0,1,.77.92.81.81,0,0,1-.2.45L70.47,37l5.42-5.4A.88.88,0,0,1,76.33,31.79Zm-5.77,6.12-4.2,4.2a.85.85,0,0,1-.13,1,.84.84,0,0,1-1.19,0,.82.82,0,0,1-.23-.44l5.49-5.48,7.73.68a.78.78,0,0,1,.11.48.84.84,0,0,1-1.66.06Zm2.17,6A3.23,3.23,0,0,1,68.6,42l-.38-1.06,6-2.21.39,1.07A3.24,3.24,0,0,1,72.73,43.89Zm-5-13.73a3.23,3.23,0,0,1,4.13,1.93l.41,1.13-6,2.21-.41-1.14A3.22,3.22,0,0,1,67.74,30.16Zm-5.39,5.58a.84.84,0,0,1,.91-.76.85.85,0,0,1,.77.77l5.93.52,4.22-4.21A.82.82,0,0,1,74.27,31a.84.84,0,0,1,1.19,0,.77.77,0,0,1,.22.44l-5.49,5.49-7.73-.68A.91.91,0,0,1,62.35,35.74Zm0,.73,7.62.67-5.41,5.4a.83.83,0,0,1-.45-.22.87.87,0,0,1,0-1.2A.84.84,0,0,1,65.24,41l3.35-3.34-4.76-.42a.83.83,0,0,1-1.62-.35A.87.87,0,0,1,62.4,36.47ZM81.15,47.22H56.89c-.22,0-.43,0-.67-.05.05-.36.1-.67.17-1.07l.55,0H81.4c.13,0,.29-.05.38,0s.31.23.33.39C82.21,47.26,81.68,47.22,81.15,47.22Zm8.78,6.57a1.13,1.13,0,0,1-1.32,1.12c-1.82,0-3.65,0-5.47,0-1.16,0-1.26-.11-1.08-1.26.57-3.64,1.15-7.29,1.71-10.94S85,35.22,85.52,31.48c.13-.87.5-1.2,1.37-1.19,1.84,0,3.7.06,5.56,0,.89,0,1.11.3,1,1.14Q91.65,42.61,89.93,53.79Zm14.88-4.54c-1.68-1.72-3.83-2.07-6.5-2-2,0-4.08,0-6.16,0,0-.39.1-.7.15-1,2.66,0,5.31-.18,7.86,0,3.77.32,5.71,2.76,6.79,6C106.17,51.57,105.57,50,104.81,49.25Z"></path><path class="cls-1" d="M65,51c-2.84.12-6.38,3-6.79,6.27a5.23,5.23,0,0,0,5.38,5.93c3-.11,6.5-2.86,6.8-6.18C71.09,54.14,68.5,50.85,65,51Zm2.51,6.07a3.64,3.64,0,0,1-3.68,3.21,2.52,2.52,0,0,1-2.68-3.12,3.64,3.64,0,0,1,3.67-3.22A2.53,2.53,0,0,1,67.51,57.06Z"></path><path class="cls-1" d="M98.92,51.05c-3.25-.18-6.54,2.81-7,6s1.53,6.16,5.27,6.07a7.18,7.18,0,0,0,7-6.09C104.63,53.75,102.61,51,98.92,51.05Zm2.37,6.06a3.73,3.73,0,0,1-3.83,3.16,2.58,2.58,0,0,1-2.69-3.12,3.79,3.79,0,0,1,3.69-3.23A2.63,2.63,0,0,1,101.29,57.11Z"></path><path class="cls-1" d="M64.34,55.29a1.84,1.84,0,1,0,1.84,1.83A1.83,1.83,0,0,0,64.34,55.29Z"></path><path class="cls-1" d="M98,55.15a2,2,0,1,0,2,2A2,2,0,0,0,98,55.15Z"></path><path class="cls-1" d="M53.23,32.49h4.91a.88.88,0,0,0,.88-.88.87.87,0,0,0-.88-.86H53.23a.86.86,0,0,0-.87.86A.87.87,0,0,0,53.23,32.49Z"></path><path class="cls-1" d="M59.66,35a.86.86,0,0,0-.86-.88h-9a.88.88,0,1,0,0,1.75h9A.86.86,0,0,0,59.66,35Z"></path><path class="cls-1" d="M53.84,59.29a.82.82,0,0,0-.81.82.82.82,0,0,0,1.63,0A.82.82,0,0,0,53.84,59.29Z"></path><path class="cls-1" d="M50.48,59.09a.51.51,0,0,0-.51.51.51.51,0,0,0,1,0A.51.51,0,0,0,50.48,59.09Z"></path><path class="cls-1" d="M47.74,61a.31.31,0,1,0,.31.31A.31.31,0,0,0,47.74,61Z"></path><path class="cls-1" d="M51.76,61.79a.31.31,0,1,0,.31.31A.31.31,0,0,0,51.76,61.79Z"></path></svg>