<svg xmlns="http://www.w3.org/2000/svg" id="Capa_1" data-name="Capa 1" width="418.78" height="90" viewBox="0 0 418.78 90"><defs><style> .cls-1 { fill: #3481f8; } </style></defs><g><g><path d="M110.85,38.44a2.86,2.86,0,0,0,.25,1.26,2.24,2.24,0,0,0,.7.85,3,3,0,0,0,1,.49,5.08,5.08,0,0,0,1.27.15,4.22,4.22,0,0,0,1.26-.17,2.46,2.46,0,0,0,.84-.44,1.63,1.63,0,0,0,.47-.62,1.8,1.8,0,0,0,.14-.71,1.54,1.54,0,0,0-.33-1.09,1.84,1.84,0,0,0-.73-.5c-.45-.16-1-.32-1.59-.47s-1.35-.35-2.24-.59a4.62,4.62,0,0,1-1.38-.57,3.16,3.16,0,0,1-.87-.78,2.65,2.65,0,0,1-.46-.92,3.64,3.64,0,0,1-.14-1,3.32,3.32,0,0,1,.41-1.68,3.67,3.67,0,0,1,1.07-1.18,4.74,4.74,0,0,1,1.51-.69,6.7,6.7,0,0,1,1.71-.23,6.87,6.87,0,0,1,1.9.26,4.73,4.73,0,0,1,1.57.79,3.67,3.67,0,0,1,1.46,3.06h-2.25a2.18,2.18,0,0,0-.84-1.76,3.38,3.38,0,0,0-1.93-.51,4.63,4.63,0,0,0-.81.08,2.31,2.31,0,0,0-.75.27,1.75,1.75,0,0,0-.57.51,1.41,1.41,0,0,0-.23.81,1.37,1.37,0,0,0,.43,1.07,2.67,2.67,0,0,0,1.11.59l.56.15,1.11.3,1.2.31.83.23a3.64,3.64,0,0,1,1.1.54,3.6,3.6,0,0,1,.78.78,3.24,3.24,0,0,1,.47,1,3.48,3.48,0,0,1,.15,1,3.56,3.56,0,0,1-.44,1.84,3.66,3.66,0,0,1-1.16,1.25,4.86,4.86,0,0,1-1.64.71,7.9,7.9,0,0,1-3.94,0,4.86,4.86,0,0,1-1.69-.83,4.06,4.06,0,0,1-1.15-1.43,4.7,4.7,0,0,1-.45-2.06Z"></path><path d="M120.8,29.87h2v1.94h-2Zm0,3.55h2v9.3h-2Z"></path><path d="M124.15,33.42h1.55V30.63h2v2.79h1.85v1.52h-1.85v5a4.5,4.5,0,0,0,0,.56,1.11,1.11,0,0,0,.12.4.66.66,0,0,0,.3.24,1.54,1.54,0,0,0,.54.08h.43a2,2,0,0,0,.43-.06V42.7l-.66.07a4.92,4.92,0,0,1-.67,0,4.59,4.59,0,0,1-1.3-.15,1.75,1.75,0,0,1-.78-.45,1.56,1.56,0,0,1-.37-.75,5.11,5.11,0,0,1-.12-1V34.94h-1.55Z"></path><path d="M131.13,29.87h2.06v1.94h-2.06Zm0,3.55h2.06v9.3h-2.06Z"></path><path d="M139.68,43a5,5,0,0,1-2-.37,4.1,4.1,0,0,1-1.48-1A4.46,4.46,0,0,1,135.3,40a6,6,0,0,1-.31-2,5.88,5.88,0,0,1,.31-2,4.37,4.37,0,0,1,.92-1.55,4.25,4.25,0,0,1,1.48-1,5.51,5.51,0,0,1,4,0,4.25,4.25,0,0,1,1.48,1,4.37,4.37,0,0,1,.92,1.55,5.88,5.88,0,0,1,.31,2,6,6,0,0,1-.31,2,4.46,4.46,0,0,1-.92,1.55,4.1,4.1,0,0,1-1.48,1A5,5,0,0,1,139.68,43Zm0-1.62a2.26,2.26,0,0,0,1.19-.29,2.4,2.4,0,0,0,.83-.75,3.15,3.15,0,0,0,.48-1.05,4.84,4.84,0,0,0,0-2.39,3,3,0,0,0-.48-1,2.4,2.4,0,0,0-.83-.75,2.57,2.57,0,0,0-2.37,0,2.4,2.4,0,0,0-.83.75,3,3,0,0,0-.48,1,4.84,4.84,0,0,0,0,2.39,3.15,3.15,0,0,0,.48,1.05,2.4,2.4,0,0,0,.83.75A2.25,2.25,0,0,0,139.68,41.35Z"></path><path d="M151,32.21a7.47,7.47,0,0,0,1.26-.11,3.81,3.81,0,0,0,1.11-.36,2.71,2.71,0,0,0,.84-.65,1.87,1.87,0,0,0,.46-1h1.68v12.6h-2.25V33.83H151Z"></path><path d="M165,29.87a3.67,3.67,0,0,1,2.2.62,4.28,4.28,0,0,1,1.34,1.58,7.27,7.27,0,0,1,.64,2.12,14.71,14.71,0,0,1,0,4.46,7.18,7.18,0,0,1-.64,2.12,4.28,4.28,0,0,1-1.34,1.58,4.23,4.23,0,0,1-4.41,0,4.25,4.25,0,0,1-1.33-1.58,7.19,7.19,0,0,1-.65-2.12,14.71,14.71,0,0,1,0-4.46,7.28,7.28,0,0,1,.65-2.12,4.25,4.25,0,0,1,1.33-1.58A3.7,3.7,0,0,1,165,29.87Zm0,11.39a1.68,1.68,0,0,0,1.11-.38,2.72,2.72,0,0,0,.72-1.05,6.34,6.34,0,0,0,.36-1.54,13.84,13.84,0,0,0,.11-1.87,13.68,13.68,0,0,0-.11-1.86,6.46,6.46,0,0,0-.36-1.54,2.65,2.65,0,0,0-.72-1.05,1.64,1.64,0,0,0-1.11-.39,1.65,1.65,0,0,0-1.13.39,2.62,2.62,0,0,0-.7,1.05,6.44,6.44,0,0,0-.37,1.54,15.51,15.51,0,0,0-.11,1.86,15.68,15.68,0,0,0,.11,1.87,6.33,6.33,0,0,0,.37,1.54,2.69,2.69,0,0,0,.7,1.05A1.7,1.7,0,0,0,165,41.26Z"></path><path d="M175,29.87a3.67,3.67,0,0,1,2.2.62,4.25,4.25,0,0,1,1.33,1.58,7,7,0,0,1,.65,2.12,14.71,14.71,0,0,1,0,4.46,6.9,6.9,0,0,1-.65,2.12,4.25,4.25,0,0,1-1.33,1.58,4.23,4.23,0,0,1-4.41,0,4.25,4.25,0,0,1-1.33-1.58,6.9,6.9,0,0,1-.65-2.12,14.71,14.71,0,0,1,0-4.46,7,7,0,0,1,.65-2.12,4.25,4.25,0,0,1,1.33-1.58A3.7,3.7,0,0,1,175,29.87Zm0,11.39a1.68,1.68,0,0,0,1.11-.38,2.6,2.6,0,0,0,.71-1.05,5.9,5.9,0,0,0,.37-1.54,15.68,15.68,0,0,0,.11-1.87,15.51,15.51,0,0,0-.11-1.86,6,6,0,0,0-.37-1.54,2.54,2.54,0,0,0-.71-1.05,1.8,1.8,0,0,0-2.24,0,2.62,2.62,0,0,0-.7,1.05,6,6,0,0,0-.37,1.54,15.51,15.51,0,0,0-.11,1.86,15.68,15.68,0,0,0,.11,1.87,5.9,5.9,0,0,0,.37,1.54,2.69,2.69,0,0,0,.7,1.05A1.68,1.68,0,0,0,175,41.26Z"></path><path d="M184.52,37a3.06,3.06,0,0,1-1.38-.28,2.58,2.58,0,0,1-.94-.78,3.17,3.17,0,0,1-.52-1.13,5.69,5.69,0,0,1-.16-1.39,5.22,5.22,0,0,1,.17-1.38,3.16,3.16,0,0,1,.54-1.14,2.6,2.6,0,0,1,.93-.77,3.33,3.33,0,0,1,2.72,0,2.72,2.72,0,0,1,.94.77,3.53,3.53,0,0,1,.54,1.14,5.67,5.67,0,0,1,.17,1.38,6.23,6.23,0,0,1-.16,1.39,3.19,3.19,0,0,1-.53,1.13,2.63,2.63,0,0,1-.93.78A3.13,3.13,0,0,1,184.52,37Zm-1.38-3.58a5.73,5.73,0,0,0,.07.95,2.71,2.71,0,0,0,.23.76,1.28,1.28,0,0,0,.43.51,1,1,0,0,0,.63.19,1.06,1.06,0,0,0,.65-.19,1.2,1.2,0,0,0,.43-.51,3.08,3.08,0,0,0,.25-.76,5.7,5.7,0,0,0,.08-.95,5.14,5.14,0,0,0-.07-.88,2.48,2.48,0,0,0-.22-.77,1.41,1.41,0,0,0-.43-.55,1.22,1.22,0,0,0-1.37,0,1.31,1.31,0,0,0-.42.55,2.48,2.48,0,0,0-.21.77A6.4,6.4,0,0,0,183.14,33.45Zm8.58-3.76h1.37l-7,13.46h-1.4ZM193.56,43a3,3,0,0,1-1.39-.29,2.6,2.6,0,0,1-.93-.77,3.19,3.19,0,0,1-.53-1.13,6.23,6.23,0,0,1-.16-1.39,5.67,5.67,0,0,1,.17-1.38,3.44,3.44,0,0,1,.54-1.14,2.72,2.72,0,0,1,.94-.77,3.33,3.33,0,0,1,2.72,0,2.69,2.69,0,0,1,.93.77,3.09,3.09,0,0,1,.54,1.14,5.22,5.22,0,0,1,.17,1.38,5.69,5.69,0,0,1-.16,1.39,3.17,3.17,0,0,1-.52,1.13,2.55,2.55,0,0,1-.94.77A2.93,2.93,0,0,1,193.56,43Zm-1.39-3.58a7.06,7.06,0,0,0,.07,1,2.71,2.71,0,0,0,.24.76,1.34,1.34,0,0,0,.42.51,1,1,0,0,0,.64.19,1.08,1.08,0,0,0,.65-.19,1.28,1.28,0,0,0,.43-.51,2.71,2.71,0,0,0,.24-.76,4.81,4.81,0,0,0,.08-1,6.4,6.4,0,0,0-.06-.88,3,3,0,0,0-.22-.78,1.48,1.48,0,0,0-.44-.54,1.21,1.21,0,0,0-1.36,0,1.36,1.36,0,0,0-.43.54,2.62,2.62,0,0,0-.2.78A6.4,6.4,0,0,0,192.17,39.39Z"></path><path d="M205.67,39.73a1.54,1.54,0,0,0,.69,1.26,2.68,2.68,0,0,0,1.42.36,5.25,5.25,0,0,0,.65,0,3.12,3.12,0,0,0,.7-.17,1.45,1.45,0,0,0,.53-.37.89.89,0,0,0,.19-.64.92.92,0,0,0-.29-.65,1.93,1.93,0,0,0-.69-.4,7.08,7.08,0,0,0-1-.27c-.36-.07-.72-.14-1.09-.23a9,9,0,0,1-1.11-.31,3.45,3.45,0,0,1-1-.48,2.3,2.3,0,0,1-.67-.78,2.48,2.48,0,0,1-.25-1.18,2.08,2.08,0,0,1,.37-1.27,2.76,2.76,0,0,1,.93-.83,4,4,0,0,1,1.26-.44,7.87,7.87,0,0,1,1.33-.13,5.59,5.59,0,0,1,1.37.16,3.6,3.6,0,0,1,1.19.49,3,3,0,0,1,.88.89,3,3,0,0,1,.44,1.32h-2.14a1.24,1.24,0,0,0-.67-1,2.8,2.8,0,0,0-1.22-.26c-.14,0-.31,0-.51,0a2.42,2.42,0,0,0-.56.13,1.35,1.35,0,0,0-.44.29.7.7,0,0,0-.18.5.8.8,0,0,0,.26.61,2,2,0,0,0,.69.39,6.6,6.6,0,0,0,1,.26l1.11.23a9.92,9.92,0,0,1,1.1.31,3.6,3.6,0,0,1,1,.48,2.24,2.24,0,0,1,1,1.93,2.5,2.5,0,0,1-.38,1.4,2.94,2.94,0,0,1-1,.94,4.51,4.51,0,0,1-1.34.52,6.66,6.66,0,0,1-1.46.16,6,6,0,0,1-1.63-.2,3.74,3.74,0,0,1-1.29-.6,2.83,2.83,0,0,1-.87-1,3.14,3.14,0,0,1-.33-1.43Z"></path><path d="M215.07,38.6a3.58,3.58,0,0,0,.15,1,2.54,2.54,0,0,0,.46.88,2.11,2.11,0,0,0,.77.61,2.6,2.6,0,0,0,1.12.22A2.54,2.54,0,0,0,219,41a2.28,2.28,0,0,0,.82-1.17h1.94a3.71,3.71,0,0,1-.56,1.35,3.78,3.78,0,0,1-.95,1,4.18,4.18,0,0,1-1.25.62,5.34,5.34,0,0,1-1.45.2,4.9,4.9,0,0,1-1.94-.36,3.87,3.87,0,0,1-1.43-1,4.27,4.27,0,0,1-.89-1.54,6.53,6.53,0,0,1-.29-2,5.58,5.58,0,0,1,.31-1.88,4.77,4.77,0,0,1,.9-1.57,4.26,4.26,0,0,1,1.41-1.07,4.39,4.39,0,0,1,1.88-.4,4.24,4.24,0,0,1,2,.46,4.4,4.4,0,0,1,1.45,1.22,4.87,4.87,0,0,1,.83,1.73,5.31,5.31,0,0,1,.14,2Zm4.79-1.35a3.77,3.77,0,0,0-.21-.94,2.54,2.54,0,0,0-.47-.78,2.43,2.43,0,0,0-.72-.54,2.09,2.09,0,0,0-.94-.21,2.55,2.55,0,0,0-1,.19,2.28,2.28,0,0,0-.76.52,2.76,2.76,0,0,0-.71,1.76Z"></path><path d="M232.08,42.23a4,4,0,0,1-1.18,3.15,5,5,0,0,1-3.39,1,7.68,7.68,0,0,1-1.42-.14,4.26,4.26,0,0,1-1.29-.49,3.12,3.12,0,0,1-1-.9,2.7,2.7,0,0,1-.47-1.37h2.05a1.54,1.54,0,0,0,.82,1.13,2,2,0,0,0,.66.2,6.06,6.06,0,0,0,.75,0,2.38,2.38,0,0,0,1.82-.61,2.5,2.5,0,0,0,.58-1.76V41.08h0a3.16,3.16,0,0,1-2.79,1.64,4.23,4.23,0,0,1-1.9-.39A3.51,3.51,0,0,1,224,41.27a4.22,4.22,0,0,1-.75-1.55,7.22,7.22,0,0,1-.24-1.9,5.58,5.58,0,0,1,.29-1.78,4.47,4.47,0,0,1,.83-1.48,3.91,3.91,0,0,1,1.32-1,4.11,4.11,0,0,1,1.78-.38,3.7,3.7,0,0,1,1.62.37A2.54,2.54,0,0,1,230,34.69h0V33.42h2.05Zm-4.56-1.13a2.17,2.17,0,0,0,1.94-1,3.13,3.13,0,0,0,.43-1,5.21,5.21,0,0,0,.14-1.18,4.43,4.43,0,0,0-.15-1.15,3,3,0,0,0-.44-1,2,2,0,0,0-.77-.68,2.41,2.41,0,0,0-1.15-.26,2.18,2.18,0,0,0-1.15.29,2.24,2.24,0,0,0-.75.75,3.11,3.11,0,0,0-.42,1,5.79,5.79,0,0,0-.12,1.16,4.27,4.27,0,0,0,.14,1.13,3.23,3.23,0,0,0,.44,1,2.32,2.32,0,0,0,.76.7A2.11,2.11,0,0,0,227.52,41.1Z"></path><path d="M242.32,42.72h-2V41.43h0a2.83,2.83,0,0,1-1.13,1.12,3,3,0,0,1-1.52.42,3.39,3.39,0,0,1-2.65-.91,4,4,0,0,1-.82-2.74v-5.9h2v5.7a2.54,2.54,0,0,0,.47,1.73,1.72,1.72,0,0,0,1.31.5,2.48,2.48,0,0,0,1.08-.2,1.78,1.78,0,0,0,.7-.53,2.06,2.06,0,0,0,.39-.8,4,4,0,0,0,.12-1V33.42h2Z"></path><path d="M244.48,33.42h1.93v1.8h0a2.09,2.09,0,0,1,.35-.74,3.92,3.92,0,0,1,.63-.66,3.21,3.21,0,0,1,.82-.48,2.47,2.47,0,0,1,.92-.18l.49,0,.28,0v2l-.44-.07-.44,0a2.49,2.49,0,0,0-1,.2,2.28,2.28,0,0,0-.8.62,2.9,2.9,0,0,0-.54,1,4.33,4.33,0,0,0-.2,1.36v4.43h-2.05Z"></path><path d="M254.76,43a5,5,0,0,1-2-.37,4.28,4.28,0,0,1-1.48-1,4.46,4.46,0,0,1-.92-1.55,6,6,0,0,1-.31-2,5.88,5.88,0,0,1,.31-2,4.37,4.37,0,0,1,.92-1.55,4.45,4.45,0,0,1,1.48-1,5.15,5.15,0,0,1,2-.37,5.23,5.23,0,0,1,2,.37,4.31,4.31,0,0,1,1.47,1,4.37,4.37,0,0,1,.92,1.55,5.88,5.88,0,0,1,.32,2,6,6,0,0,1-.32,2,4.46,4.46,0,0,1-.92,1.55,4.15,4.15,0,0,1-1.47,1A5,5,0,0,1,254.76,43Zm0-1.62a2.31,2.31,0,0,0,1.19-.29,2.46,2.46,0,0,0,.82-.75,3.15,3.15,0,0,0,.48-1.05,4.84,4.84,0,0,0,0-2.39,3,3,0,0,0-.48-1,2.46,2.46,0,0,0-.82-.75,2.41,2.41,0,0,0-1.19-.29,2.38,2.38,0,0,0-1.19.29,2.49,2.49,0,0,0-.83.75,3.37,3.37,0,0,0-.48,1,4.84,4.84,0,0,0,0,2.39,3.6,3.6,0,0,0,.48,1.05,2.49,2.49,0,0,0,.83.75A2.28,2.28,0,0,0,254.76,41.35Z"></path><path d="M113.45,50.72a3.9,3.9,0,0,1,1.22.19,2.77,2.77,0,0,1,.94.56,2.49,2.49,0,0,1,.6.91,3.21,3.21,0,0,1,.21,1.2,3.3,3.3,0,0,1-.21,1.21,2.54,2.54,0,0,1-.6.9,2.61,2.61,0,0,1-.94.56,3.9,3.9,0,0,1-1.22.19H110v4.28H109v-10Zm-.21,4.91a2.45,2.45,0,0,0,1.61-.51,2.22,2.22,0,0,0,0-3.08,2.5,2.5,0,0,0-1.61-.5H110v4.09Z"></path><path d="M118.48,53.5v1.69h0a2.84,2.84,0,0,1,1-1.36,2.76,2.76,0,0,1,1.69-.43v.88a2.77,2.77,0,0,0-1.1.16,2.53,2.53,0,0,0-.84.54,2.39,2.39,0,0,0-.56.83,2.85,2.85,0,0,0-.19,1.06v3.85h-.89V53.5Z"></path><path d="M126.34,53.59a3.38,3.38,0,0,1,1.07.83,3.64,3.64,0,0,1,.66,1.21,5.09,5.09,0,0,1,0,3,3.64,3.64,0,0,1-.66,1.21,3.22,3.22,0,0,1-1.07.82,3.45,3.45,0,0,1-1.47.3,3.4,3.4,0,0,1-1.46-.3,3.22,3.22,0,0,1-1.07-.82,3.64,3.64,0,0,1-.66-1.21,5.09,5.09,0,0,1,0-3,3.64,3.64,0,0,1,.66-1.21,3.14,3.14,0,0,1,2.53-1.13A3.45,3.45,0,0,1,126.34,53.59Zm-2.57.71a2.31,2.31,0,0,0-.79.7,3.09,3.09,0,0,0-.48,1,4.07,4.07,0,0,0,0,2.26,3.31,3.31,0,0,0,.48,1,2.31,2.31,0,0,0,.79.7,2.19,2.19,0,0,0,1.1.27,2.23,2.23,0,0,0,1.11-.27,2.31,2.31,0,0,0,.79-.7,3.31,3.31,0,0,0,.48-1,4.07,4.07,0,0,0,0-2.26,3.09,3.09,0,0,0-.48-1,2.31,2.31,0,0,0-.79-.7,2.23,2.23,0,0,0-1.11-.27A2.19,2.19,0,0,0,123.77,54.3Z"></path><path d="M132.48,53.5v.74H131v4.87a1.56,1.56,0,0,0,.12.68c.07.16.27.25.59.27a6.56,6.56,0,0,0,.76,0v.74l-.4,0h-.39a1.72,1.72,0,0,1-1.23-.34,1.79,1.79,0,0,1-.34-1.27V54.24h-1.26V53.5h1.26V51.33H131V53.5Z"></path><path d="M134.4,58.33a2.6,2.6,0,0,0,.43.92,2.27,2.27,0,0,0,.74.67,2.06,2.06,0,0,0,1.08.27,2.12,2.12,0,0,0,1.51-.51,2.65,2.65,0,0,0,.76-1.34h.88a3.57,3.57,0,0,1-1,1.91,3.11,3.11,0,0,1-2.12.67,3.4,3.4,0,0,1-1.48-.3,2.74,2.74,0,0,1-1-.83,3.55,3.55,0,0,1-.59-1.22,5.78,5.78,0,0,1-.18-1.46,5.49,5.49,0,0,1,.18-1.4,3.69,3.69,0,0,1,.59-1.23,3,3,0,0,1,1-.86,3.14,3.14,0,0,1,1.48-.33,2.87,2.87,0,0,1,1.48.35,2.92,2.92,0,0,1,1,.91,4,4,0,0,1,.56,1.31,6.18,6.18,0,0,1,.14,1.49h-5.56A3.83,3.83,0,0,0,134.4,58.33Zm4.37-2.69a2.63,2.63,0,0,0-.46-.82,2.08,2.08,0,0,0-.71-.57,2,2,0,0,0-.95-.22,2,2,0,0,0-1,.22,2.08,2.08,0,0,0-.71.57,2.8,2.8,0,0,0-.47.83,4,4,0,0,0-.23,1h4.67A3.13,3.13,0,0,0,138.77,55.64Z"></path><path d="M147,61.57a2.93,2.93,0,0,1-.56,1.1,2.4,2.4,0,0,1-1,.68,4.14,4.14,0,0,1-1.5.24,4.72,4.72,0,0,1-1.06-.12,3.12,3.12,0,0,1-.93-.4,2.24,2.24,0,0,1-.69-.68,2,2,0,0,1-.31-1h.88a1.73,1.73,0,0,0,.27.68,1.71,1.71,0,0,0,.49.44,2.23,2.23,0,0,0,.64.24,3.36,3.36,0,0,0,.71.08,2.1,2.1,0,0,0,1.78-.7,3.2,3.2,0,0,0,.55-2v-1h0a2.65,2.65,0,0,1-.9,1.08,2.43,2.43,0,0,1-1.4.41,3.52,3.52,0,0,1-1.48-.29,2.74,2.74,0,0,1-1-.79,3.36,3.36,0,0,1-.59-1.18,5.7,5.7,0,0,1-.18-1.45,4.34,4.34,0,0,1,.22-1.41,3.34,3.34,0,0,1,.63-1.16,3,3,0,0,1,1-.79,3.26,3.26,0,0,1,1.39-.28,2.39,2.39,0,0,1,.77.11,2.44,2.44,0,0,1,.65.31,3.35,3.35,0,0,1,.52.47,2,2,0,0,1,.36.56h0V53.5h.88v6.63A5.69,5.69,0,0,1,147,61.57Zm-2-1.92a2.36,2.36,0,0,0,.73-.64,2.9,2.9,0,0,0,.44-.92,3.84,3.84,0,0,0,.15-1.07,4.33,4.33,0,0,0-.13-1.06,3,3,0,0,0-.4-1,2.19,2.19,0,0,0-.72-.7,2.06,2.06,0,0,0-1.08-.27,2.12,2.12,0,0,0-1.07.26,2.33,2.33,0,0,0-.75.68,3,3,0,0,0-.42,1,4.46,4.46,0,0,0-.14,1.09,4.24,4.24,0,0,0,.14,1.07,2.9,2.9,0,0,0,.44.92,2.19,2.19,0,0,0,.74.64,2.21,2.21,0,0,0,1.06.24A2,2,0,0,0,144.92,59.65Z"></path><path d="M149.45,58.33a2.6,2.6,0,0,0,.43.92,2.27,2.27,0,0,0,.74.67,2.06,2.06,0,0,0,1.08.27,2.12,2.12,0,0,0,1.51-.51,2.65,2.65,0,0,0,.76-1.34h.88a3.57,3.57,0,0,1-1,1.91,3.11,3.11,0,0,1-2.12.67,3.4,3.4,0,0,1-1.48-.3,2.74,2.74,0,0,1-1-.83,3.53,3.53,0,0,1-.58-1.22,5.36,5.36,0,0,1-.19-1.46,5.08,5.08,0,0,1,.19-1.4,3.67,3.67,0,0,1,.58-1.23,3,3,0,0,1,1-.86,3.14,3.14,0,0,1,1.48-.33,2.87,2.87,0,0,1,1.48.35,2.92,2.92,0,0,1,1,.91,4,4,0,0,1,.56,1.31,5.71,5.71,0,0,1,.14,1.49h-5.56A3.83,3.83,0,0,0,149.45,58.33Zm4.37-2.69a2.83,2.83,0,0,0-.45-.82,2.22,2.22,0,0,0-.72-.57,2,2,0,0,0-1-.22,2,2,0,0,0-1,.22,2.08,2.08,0,0,0-.71.57,2.8,2.8,0,0,0-.47.83,4,4,0,0,0-.23,1H154A2.85,2.85,0,0,0,153.82,55.64Z"></path><path d="M156.88,53.5v1.22h0a2.7,2.7,0,0,1,.92-1,2.5,2.5,0,0,1,1.45-.38,2.41,2.41,0,0,1,1.29.35,1.68,1.68,0,0,1,.78,1.06,2.15,2.15,0,0,1,.95-1.06,2.66,2.66,0,0,1,1.34-.35c1.6,0,2.4.84,2.4,2.53v4.9h-.88V55.86a2.14,2.14,0,0,0-.38-1.36,1.64,1.64,0,0,0-1.33-.47,1.83,1.83,0,0,0-1,.22,1.55,1.55,0,0,0-.61.58,2.42,2.42,0,0,0-.31.83,5.15,5.15,0,0,0-.09,1v4.09h-.88v-4.9a3.1,3.1,0,0,0-.08-.69,1.79,1.79,0,0,0-.25-.58,1.26,1.26,0,0,0-.47-.38,1.74,1.74,0,0,0-.72-.14,2.27,2.27,0,0,0-1,.2,1.83,1.83,0,0,0-.67.56,2.71,2.71,0,0,0-.39.84,4.41,4.41,0,0,0-.12,1.06v4h-.88V53.5Z"></path><path d="M172.24,53.59a3.18,3.18,0,0,1,1.07.83,3.64,3.64,0,0,1,.66,1.21,4.88,4.88,0,0,1,0,3,3.64,3.64,0,0,1-.66,1.21,3,3,0,0,1-1.07.82,3.7,3.7,0,0,1-2.92,0,3.12,3.12,0,0,1-1.07-.82,3.64,3.64,0,0,1-.66-1.21,4.88,4.88,0,0,1,0-3,3.64,3.64,0,0,1,.66-1.21,3.28,3.28,0,0,1,1.07-.83,3.7,3.7,0,0,1,2.92,0Zm-2.57.71a2.41,2.41,0,0,0-.79.7,2.88,2.88,0,0,0-.47,1,4.07,4.07,0,0,0,0,2.26,3.07,3.07,0,0,0,.47,1,2.41,2.41,0,0,0,.79.7,2.42,2.42,0,0,0,2.22,0,2.41,2.41,0,0,0,.79-.7,3.07,3.07,0,0,0,.47-1,4.07,4.07,0,0,0,0-2.26,2.88,2.88,0,0,0-.47-1,2.41,2.41,0,0,0-.79-.7,2.42,2.42,0,0,0-2.22,0Z"></path><path d="M179.67,54.9a1.4,1.4,0,0,0-.41-.49,1.76,1.76,0,0,0-.6-.29A2.71,2.71,0,0,0,178,54a3.05,3.05,0,0,0-.6.06,1.74,1.74,0,0,0-.55.21,1.27,1.27,0,0,0-.41.39,1.06,1.06,0,0,0-.15.58.8.8,0,0,0,.15.5,1.2,1.2,0,0,0,.37.34,2,2,0,0,0,.49.24,4.19,4.19,0,0,0,.49.14l1.17.27a3.19,3.19,0,0,1,.75.2,2.4,2.4,0,0,1,.66.39,1.91,1.91,0,0,1,.47.58,1.81,1.81,0,0,1,.18.83,1.86,1.86,0,0,1-.26,1,2.17,2.17,0,0,1-.68.67,2.71,2.71,0,0,1-.93.37,4.59,4.59,0,0,1-1,.12,3.28,3.28,0,0,1-2.06-.61,2.52,2.52,0,0,1-.9-1.93H176a1.73,1.73,0,0,0,.65,1.35,2.33,2.33,0,0,0,1.48.46,3.09,3.09,0,0,0,.66-.07,2.35,2.35,0,0,0,.64-.24,1.33,1.33,0,0,0,.48-.43,1,1,0,0,0,.19-.63,1,1,0,0,0-.13-.54,1.16,1.16,0,0,0-.36-.37,2.4,2.4,0,0,0-.51-.24c-.19-.07-.39-.12-.58-.17l-1.14-.25a6.66,6.66,0,0,1-.79-.26,2.61,2.61,0,0,1-.64-.36,1.74,1.74,0,0,1-.43-.54,2,2,0,0,1,.09-1.71,2,2,0,0,1,.64-.63,2.75,2.75,0,0,1,.88-.35,3.91,3.91,0,0,1,.95-.11,3.31,3.31,0,0,1,1,.14,2.43,2.43,0,0,1,.83.43,2.26,2.26,0,0,1,.56.73,2.64,2.64,0,0,1,.24,1h-.88A1.73,1.73,0,0,0,179.67,54.9Z"></path><path d="M189,53.5v.74h-1.47v4.87a1.56,1.56,0,0,0,.12.68c.08.16.27.25.59.27a6.45,6.45,0,0,0,.76,0v.74l-.39,0h-.4a1.29,1.29,0,0,1-1.56-1.61V54.24H185.4V53.5h1.26V51.33h.88V53.5Z"></path><path d="M195.32,60.72v-1.3h0a2.48,2.48,0,0,1-1,1.11,2.87,2.87,0,0,1-1.48.39,3.33,3.33,0,0,1-1.17-.19,2,2,0,0,1-.78-.54,2.15,2.15,0,0,1-.44-.85,4.47,4.47,0,0,1-.14-1.15V53.5h.88v4.7a2.31,2.31,0,0,0,.46,1.48,2.24,2.24,0,0,0,2.45.26,2,2,0,0,0,.67-.65,3,3,0,0,0,.4-.93,4.81,4.81,0,0,0,.12-1.07V53.5h.88v7.22Z"></path><path d="M202,54.9a1.33,1.33,0,0,0-.42-.49,1.71,1.71,0,0,0-.59-.29,2.71,2.71,0,0,0-.71-.09,3.05,3.05,0,0,0-.6.06,1.74,1.74,0,0,0-.55.21,1.18,1.18,0,0,0-.41.39,1.06,1.06,0,0,0-.15.58.87.87,0,0,0,.14.5,1.24,1.24,0,0,0,.38.34,2,2,0,0,0,.49.24,3.71,3.71,0,0,0,.49.14l1.17.27a3.47,3.47,0,0,1,.75.2,2.4,2.4,0,0,1,.66.39,1.91,1.91,0,0,1,.47.58,1.81,1.81,0,0,1,.18.83,1.78,1.78,0,0,1-.27,1,2,2,0,0,1-.67.67,2.68,2.68,0,0,1-.94.37,4.44,4.44,0,0,1-1,.12,3.24,3.24,0,0,1-2.06-.61,2.56,2.56,0,0,1-.91-1.93h.89a1.7,1.7,0,0,0,.65,1.35,2.31,2.31,0,0,0,1.47.46,3.11,3.11,0,0,0,.67-.07,2.35,2.35,0,0,0,.64-.24,1.52,1.52,0,0,0,.48-.43,1,1,0,0,0,.19-.63,1,1,0,0,0-.14-.54,1,1,0,0,0-.35-.37,2.4,2.4,0,0,0-.51-.24c-.19-.07-.39-.12-.58-.17l-1.14-.25a7.52,7.52,0,0,1-.8-.26,2.73,2.73,0,0,1-.63-.36,1.49,1.49,0,0,1-.43-.54,2,2,0,0,1,.09-1.71,1.93,1.93,0,0,1,.64-.63,2.79,2.79,0,0,1,.87-.35,3.93,3.93,0,0,1,1-.11,3.36,3.36,0,0,1,1,.14,2.38,2.38,0,0,1,.82.43,2.16,2.16,0,0,1,.57.73,2.64,2.64,0,0,1,.24,1h-.88A1.73,1.73,0,0,0,202,54.9Z"></path><path d="M214,60.72V59.35h0a2,2,0,0,1-.41.64,2.72,2.72,0,0,1-.62.5,3,3,0,0,1-.75.31,2.76,2.76,0,0,1-.79.12,3.25,3.25,0,0,1-1.44-.3,2.91,2.91,0,0,1-1-.83,3.59,3.59,0,0,1-.61-1.22,5.7,5.7,0,0,1,0-2.92,3.5,3.5,0,0,1,.61-1.22,3.05,3.05,0,0,1,1-.84,3.25,3.25,0,0,1,1.44-.3,3.48,3.48,0,0,1,.79.09,2.85,2.85,0,0,1,.72.31,2.53,2.53,0,0,1,.59.49,2,2,0,0,1,.4.69h0V50.72h.88v10Zm-4.84-2.5a3.15,3.15,0,0,0,.42,1,2.39,2.39,0,0,0,.74.71,2.06,2.06,0,0,0,1.08.27,2.39,2.39,0,0,0,1.18-.27,2.43,2.43,0,0,0,.78-.71,3,3,0,0,0,.44-1,4.67,4.67,0,0,0,.13-1.11,4.61,4.61,0,0,0-.13-1.11,3,3,0,0,0-.44-1,2.32,2.32,0,0,0-.78-.71,2.39,2.39,0,0,0-1.18-.27,2.06,2.06,0,0,0-1.08.27,2.28,2.28,0,0,0-.74.71,3.15,3.15,0,0,0-.42,1,4.61,4.61,0,0,0-.13,1.11A4.67,4.67,0,0,0,209.13,58.22Z"></path><path d="M216.64,54.62a2.08,2.08,0,0,1,.61-.76,2.64,2.64,0,0,1,.91-.43,4,4,0,0,1,1.14-.14,5,5,0,0,1,.95.09,2.25,2.25,0,0,1,.86.34,1.85,1.85,0,0,1,.61.71,2.53,2.53,0,0,1,.24,1.18v3.84a.47.47,0,0,0,.52.53.64.64,0,0,0,.28-.06v.75l-.27,0h-.3a1.32,1.32,0,0,1-.54-.09.75.75,0,0,1-.32-.26,1,1,0,0,1-.14-.4,2.64,2.64,0,0,1,0-.51h0a6.69,6.69,0,0,1-.48.62,2.17,2.17,0,0,1-.55.46,2.77,2.77,0,0,1-.68.28,4,4,0,0,1-.92.1,3.56,3.56,0,0,1-.94-.12,2.06,2.06,0,0,1-.77-.38,1.7,1.7,0,0,1-.52-.66,2.1,2.1,0,0,1-.19-.94,1.85,1.85,0,0,1,.34-1.19,2.09,2.09,0,0,1,.88-.65,5.08,5.08,0,0,1,1.25-.31l1.41-.18c.18,0,.35,0,.49-.07a.92.92,0,0,0,.35-.14A.7.7,0,0,0,221,56a1.09,1.09,0,0,0,.08-.48,1.55,1.55,0,0,0-.15-.73,1.12,1.12,0,0,0-.4-.46,1.67,1.67,0,0,0-.6-.23,4.35,4.35,0,0,0-.74-.06,2.19,2.19,0,0,0-1.37.4,1.54,1.54,0,0,0-.56,1.28h-.88A3,3,0,0,1,216.64,54.62Zm4.41,2.15a.48.48,0,0,1-.32.23,2.92,2.92,0,0,1-.42.09c-.37.07-.76.13-1.15.18a6.53,6.53,0,0,0-1.09.23,2.05,2.05,0,0,0-.8.44,1.06,1.06,0,0,0-.32.82,1.32,1.32,0,0,0,.13.6,1.56,1.56,0,0,0,.88.73,1.8,1.8,0,0,0,.6.1,3.12,3.12,0,0,0,1-.15,2.72,2.72,0,0,0,.8-.45,2.3,2.3,0,0,0,.55-.72,2.21,2.21,0,0,0,.2-.95V56.77Z"></path><path d="M226.6,53.5v.74h-1.47v4.87a1.56,1.56,0,0,0,.12.68c.08.16.27.25.59.27a6.45,6.45,0,0,0,.76,0v.74l-.39,0h-.4a1.29,1.29,0,0,1-1.56-1.61V54.24H223V53.5h1.26V51.33h.88V53.5Z"></path><path d="M232.39,53.59a3.38,3.38,0,0,1,1.07.83,3.64,3.64,0,0,1,.66,1.21,5.09,5.09,0,0,1,.22,1.48,5.14,5.14,0,0,1-.22,1.48,3.64,3.64,0,0,1-.66,1.21,3.22,3.22,0,0,1-1.07.82,3.45,3.45,0,0,1-1.47.3,3.37,3.37,0,0,1-1.46-.3,3.12,3.12,0,0,1-1.07-.82,3.64,3.64,0,0,1-.66-1.21,5.09,5.09,0,0,1,0-3,3.64,3.64,0,0,1,.66-1.21,3.28,3.28,0,0,1,1.07-.83,3.37,3.37,0,0,1,1.46-.3A3.45,3.45,0,0,1,232.39,53.59Zm-2.57.71a2.31,2.31,0,0,0-.79.7,3.09,3.09,0,0,0-.48,1,4.07,4.07,0,0,0,0,2.26,3.31,3.31,0,0,0,.48,1,2.31,2.31,0,0,0,.79.7,2.16,2.16,0,0,0,1.1.27,2.23,2.23,0,0,0,1.11-.27,2.31,2.31,0,0,0,.79-.7,3.31,3.31,0,0,0,.48-1,4.07,4.07,0,0,0,0-2.26,3.09,3.09,0,0,0-.48-1,2.31,2.31,0,0,0-.79-.7,2.23,2.23,0,0,0-1.11-.27A2.16,2.16,0,0,0,229.82,54.3Z"></path><path d="M239.81,54.9a1.4,1.4,0,0,0-.41-.49,1.71,1.71,0,0,0-.59-.29,2.84,2.84,0,0,0-.72-.09,3,3,0,0,0-.59.06,1.8,1.8,0,0,0-.56.21,1.24,1.24,0,0,0-.4.39,1,1,0,0,0-.16.58.8.8,0,0,0,.15.5,1.2,1.2,0,0,0,.37.34,2,2,0,0,0,.49.24,4.19,4.19,0,0,0,.49.14l1.18.27a3.47,3.47,0,0,1,.75.2,2.5,2.5,0,0,1,.65.39,1.77,1.77,0,0,1,.47.58,1.81,1.81,0,0,1,.19.83,1.78,1.78,0,0,1-.27,1,2.07,2.07,0,0,1-.68.67,2.63,2.63,0,0,1-.93.37,4.57,4.57,0,0,1-1,.12,3.29,3.29,0,0,1-2.07-.61,2.52,2.52,0,0,1-.9-1.93h.88a1.76,1.76,0,0,0,.65,1.35,2.33,2.33,0,0,0,1.48.46,3,3,0,0,0,.66-.07,2.23,2.23,0,0,0,.64-.24,1.33,1.33,0,0,0,.48-.43,1,1,0,0,0,.19-.63,1,1,0,0,0-.13-.54,1.16,1.16,0,0,0-.36-.37,2.4,2.4,0,0,0-.51-.24,5.54,5.54,0,0,0-.58-.17l-1.13-.25a6.84,6.84,0,0,1-.8-.26,2.81,2.81,0,0,1-.64-.36,1.58,1.58,0,0,1-.42-.54,1.63,1.63,0,0,1-.16-.77,1.67,1.67,0,0,1,.25-.94,1.9,1.9,0,0,1,.63-.63,2.84,2.84,0,0,1,.88-.35,3.93,3.93,0,0,1,1-.11,3.29,3.29,0,0,1,1,.14,2.43,2.43,0,0,1,.83.43,2,2,0,0,1,.56.73,2.47,2.47,0,0,1,.24,1H240A1.58,1.58,0,0,0,239.81,54.9Z"></path><path d="M242.91,59.24h1.17v1.48h-1.17Z"></path><path d="M257.24,52.72a3,3,0,0,0-.7-.76,2.92,2.92,0,0,0-.91-.47,3.34,3.34,0,0,0-1-.16,3.54,3.54,0,0,0-1.71.38,3.31,3.31,0,0,0-1.16,1,4.24,4.24,0,0,0-.68,1.4,6.28,6.28,0,0,0,0,3.22,4.39,4.39,0,0,0,.68,1.41,3.31,3.31,0,0,0,1.16,1,3.66,3.66,0,0,0,1.71.38,3,3,0,0,0,1.26-.25,3,3,0,0,0,1-.69,3.67,3.67,0,0,0,.66-1,4.66,4.66,0,0,0,.32-1.26h.95a5.39,5.39,0,0,1-.43,1.67,4.41,4.41,0,0,1-.87,1.26,3.88,3.88,0,0,1-1.25.8,4.61,4.61,0,0,1-1.61.28,4.77,4.77,0,0,1-2.06-.43A4.23,4.23,0,0,1,251,59.35a5,5,0,0,1-.88-1.65,6.5,6.5,0,0,1-.29-2,6.39,6.39,0,0,1,.29-2,5,5,0,0,1,.88-1.66,4.25,4.25,0,0,1,1.48-1.15,4.77,4.77,0,0,1,2.06-.43,5.1,5.1,0,0,1,1.4.21,4,4,0,0,1,1.23.63,3.56,3.56,0,0,1,.92,1,3.47,3.47,0,0,1,.47,1.39h-1A3.13,3.13,0,0,0,257.24,52.72Z"></path><path d="M260.68,58.33a2.6,2.6,0,0,0,.43.92,2.27,2.27,0,0,0,.74.67,2.06,2.06,0,0,0,1.08.27,2.14,2.14,0,0,0,1.51-.51,2.65,2.65,0,0,0,.76-1.34h.88a3.57,3.57,0,0,1-1,1.91,3.11,3.11,0,0,1-2.12.67,3.4,3.4,0,0,1-1.48-.3,2.66,2.66,0,0,1-1-.83,3.55,3.55,0,0,1-.59-1.22,5.78,5.78,0,0,1-.19-1.46,5.49,5.49,0,0,1,.19-1.4,3.69,3.69,0,0,1,.59-1.23,2.93,2.93,0,0,1,1-.86,3.14,3.14,0,0,1,1.48-.33,2.87,2.87,0,0,1,1.48.35,2.92,2.92,0,0,1,1,.91,4,4,0,0,1,.56,1.31,6.18,6.18,0,0,1,.14,1.49h-5.56A3.83,3.83,0,0,0,260.68,58.33Zm4.37-2.69a2.63,2.63,0,0,0-.46-.82,2.08,2.08,0,0,0-.71-.57,2,2,0,0,0-.95-.22,2,2,0,0,0-1,.22,2.08,2.08,0,0,0-.71.57,2.8,2.8,0,0,0-.47.83,3.56,3.56,0,0,0-.23,1h4.67A3.13,3.13,0,0,0,265.05,55.64Z"></path><path d="M268.11,53.5v1.69h0a2.84,2.84,0,0,1,1.05-1.36,2.76,2.76,0,0,1,1.69-.43v.88a2.77,2.77,0,0,0-1.1.16,2.53,2.53,0,0,0-.84.54,2.39,2.39,0,0,0-.56.83,2.85,2.85,0,0,0-.19,1.06v3.85h-.89V53.5Z"></path><path d="M274.57,53.5v.74h-1.46v4.87a1.58,1.58,0,0,0,.11.68q.12.24.6.27a6.28,6.28,0,0,0,.75,0v.74l-.39,0h-.39a1.72,1.72,0,0,1-1.23-.34,1.74,1.74,0,0,1-.34-1.27V54.24H271V53.5h1.26V51.33h.89V53.5Z"></path><path d="M276.74,50.72v1.42h-.88V50.72Zm0,2.78v7.22h-.88V53.5Z"></path><path d="M279.8,54.24v6.48h-.89V54.24h-1.23V53.5h1.23v-.66A5.76,5.76,0,0,1,279,52a1.75,1.75,0,0,1,.27-.67,1.29,1.29,0,0,1,.54-.43,2.18,2.18,0,0,1,.87-.16l.37,0,.38,0v.76l-.34,0a1.56,1.56,0,0,0-.31,0,1.09,1.09,0,0,0-.56.11.63.63,0,0,0-.28.3,1,1,0,0,0-.11.44c0,.17,0,.35,0,.55v.63h1.42v.74Z"></path><path d="M283,50.72v1.42h-.88V50.72Zm0,2.78v7.22h-.88V53.5Z"></path><path d="M289.08,54.49a1.93,1.93,0,0,0-1.37-.46,2.23,2.23,0,0,0-1.11.27,2.31,2.31,0,0,0-.79.7,3.09,3.09,0,0,0-.48,1,4.07,4.07,0,0,0,0,2.26,3.31,3.31,0,0,0,.48,1,2.31,2.31,0,0,0,.79.7,2.23,2.23,0,0,0,1.11.27,2,2,0,0,0,.77-.15,2.32,2.32,0,0,0,.64-.43,2.18,2.18,0,0,0,.46-.65,2.49,2.49,0,0,0,.23-.83h.88a3.33,3.33,0,0,1-1,2,2.82,2.82,0,0,1-2,.74,3.45,3.45,0,0,1-1.47-.3,3.22,3.22,0,0,1-1.07-.82,3.64,3.64,0,0,1-.66-1.21,5.14,5.14,0,0,1-.22-1.48,5.09,5.09,0,0,1,.22-1.48,3.64,3.64,0,0,1,.66-1.21,3.38,3.38,0,0,1,1.07-.83,3.45,3.45,0,0,1,1.47-.3,3.12,3.12,0,0,1,2,.61,2.6,2.6,0,0,1,1,1.86h-.88A2.39,2.39,0,0,0,289.08,54.49Z"></path><path d="M292.1,54.62a2.08,2.08,0,0,1,.61-.76,2.68,2.68,0,0,1,.9-.43,4.17,4.17,0,0,1,1.15-.14,5,5,0,0,1,.95.09,2.25,2.25,0,0,1,.86.34,1.85,1.85,0,0,1,.61.71,2.53,2.53,0,0,1,.24,1.18v3.84a.46.46,0,0,0,.52.53.64.64,0,0,0,.28-.06v.75l-.27,0h-.3a1.32,1.32,0,0,1-.54-.09.75.75,0,0,1-.32-.26,1,1,0,0,1-.14-.4,2.64,2.64,0,0,1,0-.51h0a6.69,6.69,0,0,1-.48.62,2.17,2.17,0,0,1-.55.46,2.77,2.77,0,0,1-.68.28,4.11,4.11,0,0,1-.92.1,3.64,3.64,0,0,1-.95-.12,2.09,2.09,0,0,1-.76-.38,1.7,1.7,0,0,1-.52-.66,2.1,2.1,0,0,1-.19-.94,1.91,1.91,0,0,1,.33-1.19,2.19,2.19,0,0,1,.89-.65,5.08,5.08,0,0,1,1.25-.31l1.41-.18.49-.07a.92.92,0,0,0,.35-.14.7.7,0,0,0,.21-.29,1.26,1.26,0,0,0,.08-.48,1.55,1.55,0,0,0-.15-.73,1.2,1.2,0,0,0-.4-.46,1.72,1.72,0,0,0-.61-.23,4.15,4.15,0,0,0-.73-.06,2.19,2.19,0,0,0-1.37.4,1.54,1.54,0,0,0-.56,1.28h-.88A2.78,2.78,0,0,1,292.1,54.62Zm4.41,2.15a.48.48,0,0,1-.32.23,2.92,2.92,0,0,1-.42.09c-.37.07-.76.13-1.15.18a6.53,6.53,0,0,0-1.09.23,2.17,2.17,0,0,0-.81.44,1.06,1.06,0,0,0-.31.82,1.32,1.32,0,0,0,.13.6,1.56,1.56,0,0,0,.88.73,1.72,1.72,0,0,0,.6.1,3.12,3.12,0,0,0,1-.15,2.72,2.72,0,0,0,.8-.45,2.3,2.3,0,0,0,.55-.72,2.21,2.21,0,0,0,.2-.95V56.77Z"></path><path d="M304.73,60.72V59.35h0a2,2,0,0,1-.41.64,2.72,2.72,0,0,1-.62.5,3,3,0,0,1-.75.31,2.76,2.76,0,0,1-.79.12,3.25,3.25,0,0,1-1.44-.3,2.91,2.91,0,0,1-1-.83,3.59,3.59,0,0,1-.61-1.22,5.7,5.7,0,0,1,0-2.92,3.5,3.5,0,0,1,.61-1.22,3.05,3.05,0,0,1,1-.84,3.25,3.25,0,0,1,1.44-.3,3.48,3.48,0,0,1,.79.09,2.85,2.85,0,0,1,.72.31,2.53,2.53,0,0,1,.59.49,2,2,0,0,1,.4.69h0V50.72h.88v10Zm-4.84-2.5a3.15,3.15,0,0,0,.42,1,2.39,2.39,0,0,0,.74.71,2.06,2.06,0,0,0,1.08.27,2.39,2.39,0,0,0,1.18-.27,2.43,2.43,0,0,0,.78-.71,3,3,0,0,0,.44-1,4.67,4.67,0,0,0,.13-1.11,4.61,4.61,0,0,0-.13-1.11,3,3,0,0,0-.44-1,2.32,2.32,0,0,0-.78-.71,2.39,2.39,0,0,0-1.18-.27,2.06,2.06,0,0,0-1.08.27,2.28,2.28,0,0,0-.74.71,3.15,3.15,0,0,0-.42,1,4.61,4.61,0,0,0-.13,1.11A4.67,4.67,0,0,0,299.89,58.22Z"></path><path d="M311.74,53.59a3.38,3.38,0,0,1,1.07.83,3.64,3.64,0,0,1,.66,1.21,5.09,5.09,0,0,1,0,3,3.64,3.64,0,0,1-.66,1.21,3.22,3.22,0,0,1-1.07.82,3.45,3.45,0,0,1-1.47.3,3.4,3.4,0,0,1-1.46-.3,3.22,3.22,0,0,1-1.07-.82,3.64,3.64,0,0,1-.66-1.21,5.09,5.09,0,0,1,0-3,3.64,3.64,0,0,1,.66-1.21,3.14,3.14,0,0,1,2.53-1.13A3.45,3.45,0,0,1,311.74,53.59Zm-2.57.71a2.31,2.31,0,0,0-.79.7,3.09,3.09,0,0,0-.48,1,4.07,4.07,0,0,0,0,2.26,3.31,3.31,0,0,0,.48,1,2.31,2.31,0,0,0,.79.7,2.19,2.19,0,0,0,1.1.27,2.23,2.23,0,0,0,1.11-.27,2.31,2.31,0,0,0,.79-.7,3.31,3.31,0,0,0,.48-1,4.07,4.07,0,0,0,0-2.26,3.09,3.09,0,0,0-.48-1,2.31,2.31,0,0,0-.79-.7,2.23,2.23,0,0,0-1.11-.27A2.19,2.19,0,0,0,309.17,54.3Z"></path><path d="M319.75,58.72a2.18,2.18,0,0,0,.7.83,3,3,0,0,0,1,.44,6.56,6.56,0,0,0,1.29.13,3.89,3.89,0,0,0,.85-.11,3.13,3.13,0,0,0,.86-.36,2.12,2.12,0,0,0,.67-.63,1.66,1.66,0,0,0,.26-.93,1.35,1.35,0,0,0-.19-.73,1.73,1.73,0,0,0-.49-.52,2.94,2.94,0,0,0-.66-.34,6.59,6.59,0,0,0-.72-.22l-2.22-.54a8.45,8.45,0,0,1-.85-.28,2.65,2.65,0,0,1-.72-.45,2.35,2.35,0,0,1-.5-.69,2.43,2.43,0,0,1-.19-1,3.39,3.39,0,0,1,.14-.86,2.47,2.47,0,0,1,.53-.92,3.06,3.06,0,0,1,1.06-.73,4.2,4.2,0,0,1,1.72-.31,5.06,5.06,0,0,1,1.41.2,3.54,3.54,0,0,1,1.18.59,2.83,2.83,0,0,1,1.1,2.32h-.95a2.28,2.28,0,0,0-.26-1,2.17,2.17,0,0,0-.6-.71,2.74,2.74,0,0,0-.85-.44,3.81,3.81,0,0,0-1-.14,4.17,4.17,0,0,0-.94.1,2.23,2.23,0,0,0-.8.34,1.71,1.71,0,0,0-.55.61,1.88,1.88,0,0,0-.21.93,1.41,1.41,0,0,0,.12.61,1.09,1.09,0,0,0,.32.44,1.74,1.74,0,0,0,.49.3,4.39,4.39,0,0,0,.58.18l2.43.6a6.9,6.9,0,0,1,1,.35,3.11,3.11,0,0,1,.83.5,2.1,2.1,0,0,1,.56.73,2.4,2.4,0,0,1,.2,1,4.21,4.21,0,0,1,0,.45,2.1,2.1,0,0,1-.17.6,2.9,2.9,0,0,1-.38.64,2.44,2.44,0,0,1-.67.58,4,4,0,0,1-1.06.42,6.53,6.53,0,0,1-1.51.16,6.14,6.14,0,0,1-1.64-.21,3.4,3.4,0,0,1-1.28-.62,2.68,2.68,0,0,1-.82-1.08,3.51,3.51,0,0,1-.25-1.58h.95A2.81,2.81,0,0,0,319.75,58.72Z"></path><path d="M328.57,58.72a2.25,2.25,0,0,0,.69.83,3.11,3.11,0,0,0,1.05.44,6.56,6.56,0,0,0,1.29.13,3.89,3.89,0,0,0,.85-.11,3.26,3.26,0,0,0,.86-.36A2.12,2.12,0,0,0,334,59a1.66,1.66,0,0,0,.26-.93,1.35,1.35,0,0,0-.19-.73,1.73,1.73,0,0,0-.49-.52,2.94,2.94,0,0,0-.66-.34,6.59,6.59,0,0,0-.72-.22L330,55.74a8.45,8.45,0,0,1-.85-.28,2.51,2.51,0,0,1-.72-.45,2.19,2.19,0,0,1-.5-.69,2.43,2.43,0,0,1-.19-1,3.39,3.39,0,0,1,.14-.86,2.47,2.47,0,0,1,.53-.92,3.06,3.06,0,0,1,1.06-.73,4.2,4.2,0,0,1,1.72-.31,5.06,5.06,0,0,1,1.41.2,3.54,3.54,0,0,1,1.18.59,2.83,2.83,0,0,1,1.1,2.32h-.95a2.28,2.28,0,0,0-.26-1,2.17,2.17,0,0,0-.6-.71,2.74,2.74,0,0,0-.85-.44,3.81,3.81,0,0,0-1-.14,4.11,4.11,0,0,0-.94.1,2.23,2.23,0,0,0-.8.34,1.71,1.71,0,0,0-.55.61,1.88,1.88,0,0,0-.21.93,1.41,1.41,0,0,0,.12.61,1.09,1.09,0,0,0,.32.44,1.74,1.74,0,0,0,.49.3,4.39,4.39,0,0,0,.58.18l2.43.6a6.9,6.9,0,0,1,1,.35,3.11,3.11,0,0,1,.83.5A2.1,2.1,0,0,1,335,57a2.4,2.4,0,0,1,.2,1,4.21,4.21,0,0,1,0,.45,2.1,2.1,0,0,1-.17.6,2.9,2.9,0,0,1-.38.64,2.44,2.44,0,0,1-.67.58,4,4,0,0,1-1.06.42,6.53,6.53,0,0,1-1.51.16,6.14,6.14,0,0,1-1.64-.21,3.4,3.4,0,0,1-1.28-.62,2.68,2.68,0,0,1-.82-1.08,3.51,3.51,0,0,1-.25-1.58h.95A2.81,2.81,0,0,0,328.57,58.72Z"></path><path d="M337.66,50.72v9.19h5.6v.81h-6.55v-10Z"></path><path d="M344.57,59.24h1.18v1.48h-1.18Z"></path></g><g><path class="cls-1" d="M85.49,39.73h-.36V36.58a11.15,11.15,0,1,0-22.29,0v3.15h-.35a3.75,3.75,0,0,0-3.75,3.75V60.81a3.76,3.76,0,0,0,3.75,3.76h23a3.76,3.76,0,0,0,3.75-3.76V43.48A3.75,3.75,0,0,0,85.49,39.73Zm1,21.08a1,1,0,0,1-1,1h-23a1,1,0,0,1-1-1V43.48a1,1,0,0,1,1-1h23a1,1,0,0,1,1,1ZM65.63,36.58a8.36,8.36,0,1,1,16.71,0v3.15H65.63Z"></path><path class="cls-1" d="M74,47.34a3,3,0,0,0-2.14,5.13v3.67a.82.82,0,0,0,.82.82h2.64a.82.82,0,0,0,.82-.82V52.47A3,3,0,0,0,77,50.35a3.07,3.07,0,0,0-.38-1.45A3,3,0,0,0,74,47.34Z"></path></g></g></svg>