<svg xmlns="http://www.w3.org/2000/svg" width="149.06" height="67.23" viewBox="0 0 149.06 67.23"><g id="Ilustraci&#xF3;n_19" data-name="Ilustraci&#xF3;n 19" transform="translate(-885.47 -6096.845)"><g id="Grupo_25" data-name="Grupo 25"><g id="Grupo_23" data-name="Grupo 23"><g id="Grupo_22" data-name="Grupo 22"><path id="Trazado_46" data-name="Trazado 46" d="M968.9,6149.58v.041a8.9,8.9,0,0,1-17.8,0v-.041h17.8m5.936-5.551H945.163v5.215a14.837,14.837,0,0,0,29.675,0v-5.215Z" fill="#f71c53"></path><path id="Trazado_47" data-name="Trazado 47" d="M960,6102.412a8.913,8.913,0,0,1,8.9,8.9v.355H951.1v-.355a8.911,8.911,0,0,1,8.9-8.9m0-5.567a14.832,14.832,0,0,0-14.838,14.832v5.559h29.675v-5.559A14.832,14.832,0,0,0,960,6096.845Z" fill="#f71c53"></path><g id="Grupo_21" data-name="Grupo 21"><path id="Trazado_48" data-name="Trazado 48" d="M960,6129.878l32.376-15.092a3.784,3.784,0,0,0-.28-2.276,3.866,3.866,0,0,0-7.236,2.645L960,6126.744l-24.86-11.588a3.866,3.866,0,0,0-7.237-2.646,3.785,3.785,0,0,0-.279,2.277Z" fill="#f71c53"></path><path id="Trazado_49" data-name="Trazado 49" d="M992.723,6138.669a3.865,3.865,0,0,0-4.806,1.305L968.2,6130.78l19.912-9.282a3.863,3.863,0,0,0,6.487-4.088,3.774,3.774,0,0,0-1.563-1.677l-31.92,14.881,31.92,14.879a3.766,3.766,0,0,0,1.563-1.679A3.87,3.87,0,0,0,992.723,6138.669Z" fill="#f71c53"></path><path id="Trazado_50" data-name="Trazado 50" d="M958.887,6130.614l-31.92-14.881a3.772,3.772,0,0,0-1.562,1.677,3.864,3.864,0,0,0,6.486,4.09l19.912,9.28-19.721,9.194a3.865,3.865,0,0,0-6.677,3.84,3.77,3.77,0,0,0,1.562,1.679Z" fill="#f71c53"></path><path id="Trazado_51" data-name="Trazado 51" d="M960,6131.348l-32.376,15.092a3.782,3.782,0,0,0,.279,2.274,3.864,3.864,0,0,0,7.3-2.339L960,6134.818l24.8,11.557a3.863,3.863,0,0,0,7.3,2.339,3.781,3.781,0,0,0,.281-2.274Z" fill="#f71c53"></path></g></g></g><g id="Grupo_24" data-name="Grupo 24"><path id="Trazado_52" data-name="Trazado 52" d="M917.966,6130.8l-14.511-17.569-3.187,4.364-14.8-10.655,15.182,17.375,3.235-4.608Z" fill="#f71c53"></path><path id="Trazado_53" data-name="Trazado 53" d="M1002.034,6130.8l14.511-17.569,3.187,4.364,14.8-10.655-15.182,17.375-3.235-4.608Z" fill="#f71c53"></path></g></g></g></svg>