<svg xmlns="http://www.w3.org/2000/svg" width="102.454" height="45.083" viewBox="0 0 102.454 45.083">
  <g id="logo" transform="translate(-272.607 -23.343)">
    <g id="Grupo_5" data-name="Grupo 5">
      <g id="Grupo_3" data-name="Grupo 3">
        <g id="Grupo_2" data-name="Grupo 2">
          <path id="Trazado_1" data-name="Trazado 1" d="M329.465,58v.04a5.831,5.831,0,0,1-3.482,5.434,6.034,6.034,0,0,1-8.518-5.446V58h12m4-3h-20v3.2a10.113,10.113,0,0,0,7.685,9.968,10,10,0,0,0,12.315-9.676V55Z" fill="#d6d6d6"/>
          <path id="Trazado_2" data-name="Trazado 2" d="M323.465,26.8a5.989,5.989,0,0,1,6,5.961V33h-12v-.238a5.988,5.988,0,0,1,6-5.961m0-3.458a9.966,9.966,0,0,0-10,9.934h0V37h20V33.277a9.966,9.966,0,0,0-10-9.934Z" fill="#d6d6d6"/>
          <g id="Grupo_1" data-name="Grupo 1">
            <path id="Trazado_3" data-name="Trazado 3" d="M323.834,45.284l21.684-10.108a2.528,2.528,0,0,0-.188-1.524,2.589,2.589,0,0,0-4.846,1.771l-16.65,7.762-16.65-7.761a2.589,2.589,0,0,0-4.847-1.772,2.537,2.537,0,0,0-.187,1.525Z" fill="#d6d6d6"/>
            <path id="Trazado_4" data-name="Trazado 4" d="M345.751,51.171a2.59,2.59,0,0,0-3.219.874l-13.209-6.157,13.336-6.216A2.588,2.588,0,0,0,347,36.933a2.534,2.534,0,0,0-1.046-1.123l-21.379,9.967,21.379,9.965A2.516,2.516,0,0,0,347,54.618,2.593,2.593,0,0,0,345.751,51.171Z" fill="#d6d6d6"/>
            <path id="Trazado_5" data-name="Trazado 5" d="M323.089,45.777,301.71,35.81a2.529,2.529,0,0,0-1.046,1.123,2.588,2.588,0,0,0,4.344,2.74l13.336,6.215-13.208,6.157a2.589,2.589,0,0,0-4.472,2.573,2.516,2.516,0,0,0,1.046,1.124Z" fill="#d6d6d6"/>
            <path id="Trazado_6" data-name="Trazado 6" d="M323.834,46.269,302.15,56.377a2.54,2.54,0,0,0,.187,1.523,2.589,2.589,0,0,0,4.892-1.567l16.6-7.74,16.607,7.74a2.587,2.587,0,0,0,4.89,1.567,2.533,2.533,0,0,0,.189-1.523Z" fill="#d6d6d6"/>
          </g>
        </g>
      </g>
      <g id="Grupo_4" data-name="Grupo 4">
        <path id="Trazado_7" data-name="Trazado 7" d="M294.372,45.9l-9.719-11.767-2.135,2.922-9.911-7.136,10.168,11.637,2.167-3.086Z" fill="#d6d6d6"/>
        <path id="Trazado_8" data-name="Trazado 8" d="M353.3,45.9l9.719-11.767,2.135,2.922,9.911-7.136L364.893,41.558l-2.167-3.086Z" fill="#d6d6d6"/>
      </g>
    </g>
  </g>
</svg>
